<?xml version="1.0" encoding="utf-8"?>

<!DOCTYPE svg PUBLIC "-//W3C//DTD SVG 1.1//EN" "http://www.w3.org/Graphics/SVG/1.1/DTD/svg11.dtd">
<svg version="1.1" id="Layer_1" xmlns="http://www.w3.org/2000/svg" xmlns:xlink="http://www.w3.org/1999/xlink" x="0px" y="0px"
	 viewBox="188.998 191.816 1598.002 1716.93" enable-background="new 188.998 191.816 1598.002 1716.93" xml:space="preserve">
<g>
	<path fill="#D0D2D3" stroke="#D0D2D3" stroke-width="0.5" d="M977.816,250.277h27.223c56.587,1.661,112.968,12.484,165.838,32.845
		c54.576,20.932,105.427,51.758,148.791,91.008c44.963,40.629,81.845,90.407,106.433,145.866
		c19.736,0.35,38.603,12.477,47.218,30.217c2.315,4.776,3.961,9.879,4.89,15.12c3.534,19.781,7.092,39.571,10.641,59.352
		c0.777,4.106,1.478,8.242,1.516,12.423c0.739,20.33-11.296,40.264-29.349,49.488c-0.03,61.393-14.693,122.634-41.985,177.599
		c-26.713,54.249-65.301,102.411-111.483,141.357c-17.999,15.089-37.034,28.975-57.113,41.17
		c-23.803,14.617-48.901,27.155-74.891,37.384c7.015,4.913,11.685,12.972,12.462,21.503c1.082,10.831-3.999,22.036-12.88,28.335
		c-4.517,3.184-9.925,4.608-15.067,6.421c-4.136,1.379-8.287,2.719-12.439,4.022c-41.376,12.759-84.336,20.459-127.593,22.47
		c-0.084,87.268-0.015,174.544-0.038,261.813c0.236,4.799-3.032,8.927-7,11.243c-7.381,4.365-16.445,5.134-24.771,3.679
		c-5.698-1.112-11.639-3.496-15.097-8.394c-2.742-3.938-1.721-8.973-1.889-13.452c-0.008-84.96,0.053-169.928-0.03-254.889
		c-41.269-1.927-82.272-9.011-121.873-20.749c-4.456-1.295-8.813-2.894-13.345-3.877c-5.431-2.582-11.479-3.595-16.803-6.429
		c-4.555-2.369-8.325-6.063-11.106-10.352c-4.243-6.733-6.04-15.067-4.387-22.897c1.211-6.246,4.593-11.898,9.125-16.301
		c-80.23-30.316-152.394-82.599-204.693-150.741c-14.51-18.776-27.254-38.877-38.626-59.695
		c-14.526-27.376-26.096-56.343-34.124-86.286c-8.805-32.586-13.307-66.299-13.749-100.042c-8.744-3.199-16.712-8.554-22.767-15.653
		c-8.729-10.055-13.65-23.392-13.223-36.729c0.023-5.606,1.302-11.09,2.255-16.582c3.321-18.532,6.657-37.064,9.971-55.597
		c0.906-5.096,2.544-10.062,4.814-14.716c4.38-8.798,11.159-16.392,19.454-21.678c10.093-6.543,22.394-9.392,34.345-8.371
		c31.123-70.138,81.769-131.051,143.627-176.235c51.133-37.476,109.838-64.463,171.422-79.438
		C906.307,255.921,942.023,251.404,977.816,250.277 M889.725,267.179c-56.975,11.814-111.871,33.865-160.925,65.194
		c-42.191,26.888-80.04,60.654-111.171,99.844c-35.206,44.407-61.858,95.883-76.102,150.817
		c11.311,5.218,19.34,15.386,25.266,26.035c7.465,13.528,12.157,28.396,15.485,43.432c3.801,17.504,5.545,35.412,5.827,53.312
		c0,24.108,0,48.223,0,72.339c0.053,13.429,0.137,26.888-1.211,40.279c-1.744,18.426-5.18,36.783-11.334,54.279
		c17.55,33.096,39.708,63.709,65.286,91.062c40.127,42.922,88.746,77.732,141.936,102.602
		c53.609,25.113,111.871,40.119,170.888,44.499c68.173,5.149,137.457-3.687,201.973-26.408
		c51.316-18.022,99.593-44.811,141.761-79.202c40.241-32.807,74.944-72.545,101.246-117.348c1.874-3.588,4.479-6.878,5.774-10.717
		c-1.379-4.616-3.268-9.079-4.547-13.733c-5.728-19.538-8.539-39.837-9.384-60.144c-0.541-17.527-0.236-35.061-0.312-52.596
		c0.076-17.786-0.236-35.587,0.343-53.373c0.899-20.315,3.679-40.645,9.506-60.167c3.839-12.682,8.927-25.144,16.514-36.067
		c5.941-8.668,14.053-16.354,24.329-19.431c-8.798-33.119-22.051-65.027-38.931-94.832
		c-26.165-46.205-61.203-87.238-102.099-121.042c-42.145-34.863-90.536-62.056-142.035-80.436
		C1072.374,254.824,978.509,248.738,889.725,267.179 M510.815,549.314c-3.214,5.187-5.393,10.999-6.459,17.001
		c-3.725,20.84-7.472,41.673-11.228,62.505c-1.059,5.515-1.302,11.205-0.366,16.75c2.453,16.118,13.734,30.582,28.861,36.722
		c0.221-53.319,11.25-106.517,32.045-155.609C536.652,525.633,519.658,534.811,510.815,549.314 M1429.133,526.844
		c7.891,19.043,14.625,38.588,19.606,58.598c7.807,30.506,11.776,61.942,12.355,93.408c13.033-7.99,21.785-22.516,22.615-37.796
		c0.571-7.152-1.303-14.145-2.453-21.137c-3.39-18.608-6.619-37.247-10.085-55.841
		C1467.051,544.348,1449.257,528.466,1429.133,526.844 M1426.711,599.152c-6.406,7.29-10.93,16.011-14.701,24.9
		c-7.587,18.441-11.631,38.169-13.718,57.95c-1.577,14.465-1.516,29.029-1.447,43.562c-0.008,22.333,0.008,44.674-0.008,67.015
		c0.168,19.454,2.041,38.946,6.49,57.905c1.6,6.337,3.039,12.781,5.614,18.814c14.381-27.452,25.593-56.572,33.271-86.598
		c16.255-63.45,16.262-130.891,0.358-194.41C1436.179,589.913,1431.007,594.346,1426.711,599.152 M539.699,589.875
		c-7.8,32.426-11.905,65.781-11.403,99.143c0.487,60.693,15.265,121.263,42.914,175.306c1.76-4.951,2.994-10.07,4.182-15.173
		c4.357-19.538,6.315-39.593,6.048-59.603c0-19.819,0-39.631,0-59.451c-0.084-15.988,0.48-32.03-1.287-47.964
		c-2.049-20.086-6.071-40.149-13.833-58.865c-4.258-9.818-9.453-19.515-17.207-27.04
		C546.326,593.661,543.363,591.063,539.699,589.875 M1166.475,1087.694c-18.784,6.81-37.887,12.797-57.341,17.39
		c-94.543,22.592-195.705,17.511-287.231-15.409c-2.476-1.181-4.311,1.668-5.972,3.077c-8.295,8.539-8.082,23.186-0.16,31.908
		c4.007,5.088,10.382,7.031,16.285,8.965c40.088,13.581,81.86,22.242,124.066,25.517c69.064,5.484,139.194-3.565,204.7-26.081
		c3.466-1.226,7.099-2.239,10.153-4.365c6.688-4.555,10.763-12.629,10.527-20.711c-0.053-7.229-3.938-14.252-9.94-18.25
		C1170.009,1088.844,1168.348,1087.489,1166.475,1087.694 M977.945,1167.155c-0.107,86.895,0.015,173.79-0.061,260.678
		c-0.008,1.485,0.099,3.153,1.234,4.288c2.818,3.085,7.038,4.357,11.029,5.103c6.375,0.868,13.216,0.457,18.951-2.689
		c2.133-1.226,4.41-3.161,4.22-5.88c-0.008-87.154,0.046-174.316-0.023-261.478C1001.512,1167.46,989.721,1167.49,977.945,1167.155z
		"/>
	<path fill="#FFFFFF" stroke="#FFFFFF" stroke-width="0.5" d="M889.725,267.179c88.784-18.441,182.649-12.355,268.082,18.197
		c51.499,18.38,99.89,45.573,142.035,80.436c40.896,33.804,75.934,74.837,102.099,121.042
		c16.879,29.806,30.133,61.713,38.931,94.832c-10.275,3.077-18.388,10.763-24.329,19.431c-7.587,10.923-12.675,23.384-16.514,36.067
		c-5.827,19.522-8.607,39.852-9.506,60.167c-0.579,17.786-0.266,35.587-0.343,53.373c0.076,17.534-0.229,35.069,0.312,52.596
		c0.845,20.307,3.656,40.606,9.384,60.144c1.28,4.654,3.169,9.118,4.547,13.733c-1.295,3.839-3.9,7.13-5.774,10.717
		c-26.302,44.803-61.005,84.542-101.246,117.348c-42.168,34.391-90.445,61.18-141.761,79.202
		c-64.516,22.722-133.801,31.557-201.973,26.408c-59.017-4.38-117.28-19.385-170.888-44.499
		c-53.19-24.87-101.809-59.68-141.936-102.602c-25.578-27.353-47.736-57.966-65.286-91.062c6.155-17.496,9.59-35.853,11.334-54.279
		c1.348-13.391,1.264-26.85,1.211-40.279c0-24.116,0-48.231,0-72.339c-0.282-17.9-2.026-35.808-5.827-53.312
		c-3.329-15.036-8.021-29.905-15.485-43.432c-5.926-10.649-13.954-20.817-25.266-26.035c14.244-54.934,40.896-106.41,76.102-150.817
		c31.131-39.19,68.98-72.956,111.171-99.844C777.853,301.044,832.749,278.993,889.725,267.179 M851.838,479.831
		c-26.462,2.125-52.497,9.064-76.605,20.132c-41.97,19.218-77.816,50.623-104.338,88.228
		c-32.266,45.565-51.209,100.088-55.985,155.616c-1.363,16.445-1.851,33.02-0.427,49.488c1.577,18.997,5.492,37.781,11.418,55.894
		c13.916,42.541,38.725,81.03,69.574,113.265c36.051,37.522,80.284,67.266,128.873,85.958
		c29.844,11.418,61.523,18.517,93.537,19.126c39.372,0.107,78.745,0.015,118.117,0.046c16.232-0.107,32.517,0.51,48.681-1.242
		c18.357-1.843,36.485-5.72,54.104-11.167c47.751-14.869,91.846-40.744,129.094-74.007c37.666-33.789,68.584-75.858,86.027-123.579
		c11.205-30.43,16.377-63.054,14.998-95.464c-1.805-57.204-18.433-114.157-49.358-162.449
		c-26.484-41.528-63.77-76.65-108.375-97.986c-28.48-13.68-59.794-21.541-91.397-22.486c-79.225-0.069-158.457-0.008-237.682-0.03
		C872.007,479.237,861.9,478.872,851.838,479.831z"/>
	<path fill="#D0D2D3" stroke="#D0D2D3" stroke-width="0.5" d="M851.838,479.831c10.062-0.96,20.17-0.594,30.255-0.655
		c79.225,0.023,158.457-0.038,237.682,0.03c31.603,0.945,62.917,8.805,91.397,22.486c44.605,21.335,81.891,56.457,108.375,97.986
		c30.925,48.292,47.553,105.245,49.358,162.449c1.379,32.411-3.793,65.034-14.998,95.464
		c-17.443,47.721-48.361,89.79-86.027,123.579c-37.247,33.264-81.342,59.139-129.094,74.007
		c-17.618,5.446-35.747,9.323-54.104,11.167c-16.163,1.752-32.449,1.135-48.681,1.242c-39.372-0.03-78.745,0.061-118.117-0.046
		c-32.014-0.609-63.694-7.708-93.537-19.126c-48.589-18.692-92.821-48.437-128.873-85.958
		c-30.849-32.235-55.658-70.724-69.574-113.265c-5.926-18.113-9.841-36.897-11.418-55.894c-1.424-16.468-0.937-33.043,0.427-49.488
		c4.776-55.528,23.719-110.051,55.985-155.616c26.523-37.605,62.368-69.01,104.338-88.228
		C799.341,488.896,825.376,481.957,851.838,479.831 M778.6,505.745c-44.727,20.315-82.211,54.85-108.794,95.914
		c-35.016,53.99-51.819,119.146-49.275,183.304c0.289,4.045,0.213,8.165,1.363,12.096c-0.244,1.059-0.221,2.163-0.107,3.252
		c2.072,17.352,6.063,34.467,11.784,50.973c14.092,40.82,38.443,77.663,68.447,108.535c2.75,2.902,5.378,6.033,8.805,8.188
		c0.571,1.28,1.767,2.148,2.75,3.138c7.488,6.977,15.242,13.68,23.308,19.995c3.656,2.651,7.023,5.774,10.976,7.998
		c4.707,4.06,10.108,7.206,15.226,10.71c40.987,26.469,87.703,45.131,136.467,50.006c16.971,1.752,34.056,0.83,51.087,1.059
		c39.35-0.061,78.707,0.137,118.064-0.107c39.068-1.401,77.328-12.56,112.473-29.341c12.69-6.276,25.296-12.873,37.011-20.855
		c3.755-1.958,7.114-4.578,10.633-6.916c4.098-3.1,8.691-5.614,12.309-9.293c0.937-0.404,1.767-1.021,2.605-1.622
		c6.543-5.126,12.972-10.397,19.157-15.95c2.734-2.689,6.071-4.89,8.272-8.059c1.554-1.074,3.016-2.293,4.326-3.656
		c4.494-4.631,9.11-9.148,13.345-14.023c20.414-22.447,37.712-47.827,50.448-75.393c13.078-28.229,21.206-58.849,22.844-89.957
		c0.586-15.973,0.251-32.007-1.584-47.888c-0.251-2.216-0.328-4.464-0.853-6.634c-4.928-40.241-17.839-79.522-37.819-114.804
		c-24.382-42.953-59.931-80.07-103.569-103.615c-30.438-16.491-64.699-26.05-99.341-26.995c-17.245-0.358-34.498-0.069-51.75-0.16
		c-64.227,0-128.446,0-192.673,0C841.585,485.141,808.557,492.011,778.6,505.745z"/>
	<path fill="#F6921E" stroke="#F6921E" stroke-width="0.5" d="M778.6,505.745c29.958-13.734,62.985-20.604,95.937-20.101
		c64.227,0,128.446,0,192.673,0c17.253,0.091,34.505-0.198,51.75,0.16c34.642,0.945,68.904,10.504,99.341,26.995
		c43.638,23.544,79.187,60.662,103.569,103.615c19.98,35.282,32.89,74.563,37.819,114.804c-5.035-8.531-13.482-15.089-23.156-17.397
		c-1.066-0.289-2.438-0.358-2.902,0.876c-1.363,3.108-0.663,6.627-0.305,9.887c1.531,10.1,4.464,19.903,7.35,29.676
		c-2.049-0.236-4.068-0.472-6.086-0.731c-27.787-3.984-55.056-12.408-79.804-25.746c-20.909-11.319-39.898-26.713-53.7-46.19
		c-3.412-4.723-6.36-9.742-9.232-14.8c-0.579,3.946-1.097,7.914-1.051,11.905c0.19,14.091,4.685,27.779,11.052,40.233
		c7.747,14.983,17.984,28.61,29.722,40.698c-4.57-0.427-9.133-1.028-13.65-1.805c-27.924-4.928-55.17-14.731-79.118-30.019
		c-18.715-11.951-35.206-27.543-47.447-46.114c-2.415-3.58-4.517-7.358-6.779-11.022c-0.168,5.286,0.19,10.588,1.211,15.783
		c2.605,14.396,8.615,27.932,15.623,40.683c10.153,18.151,22.653,34.932,36.508,50.417c-4.144,0.053-8.28,0-12.416-0.183
		c-28.473-1.318-56.747-6.01-84.275-13.337c-27.208-7.29-53.685-17.397-78.669-30.415c-34.924-18.144-66.809-42.214-93.446-71.204
		c-16.331-17.732-30.674-37.255-42.96-57.981c-7.457,26.446-19.401,51.864-36.745,73.299
		c-28.412,35.617-71.654,58.491-116.823,63.381c-2.178,0.145-4.357,0.335-6.528,0.518c9.392-11.677,15.897-26.142,16.255-41.277
		c0.023-3.481-0.419-6.939-0.952-10.374c-10.313,2.864-19.477,9.072-26.515,17.062c-8.912,10.055-15.249,22.181-19.812,34.749
		c-5.164,13.01-8.341,26.728-10.725,40.492c-0.922,4.905-1.12,9.94-2.422,14.777c-1.15-3.93-1.074-8.051-1.363-12.096
		c-2.544-64.158,14.259-129.315,49.275-183.304C696.389,560.595,733.872,526.059,778.6,505.745 M756.442,647.155
		c-11.7,20.155-24.672,39.776-40.744,56.739c-5.096,5.675-11.098,10.42-16.613,15.668c6.391-1.714,12.225-4.974,17.87-8.348
		c10.512-6.375,19.591-14.815,27.795-23.902c17.999-20.429,30.262-45.489,37.278-71.684c2.887-11.631,5.34-23.605,4.692-35.64
		C779.582,603.578,768.583,625.782,756.442,647.155 M872.213,581.496c2.178,5.743,5.256,11.098,7.99,16.59
		c23.186,43.912,54.081,84.717,94.512,114.103c24.192,17.466,51.88,30.476,81.327,35.899c7.731,1.348,15.569,2.78,23.445,2.445
		c-11.684-3.245-23.194-7.168-34.338-11.959c-27.094-11.547-51.918-27.901-74.487-46.723c-31.611-26.53-58.994-57.737-83.757-90.666
		C881.871,594.727,877.469,587.773,872.213,581.496 M975.835,588.092c0.206,8.386,2.651,16.529,4.806,24.588
		c5.903,20.193,15.204,39.365,26.926,56.815c16.156,23.59,37.27,44.339,62.901,57.394c4.639,2.163,9.217,4.753,14.32,5.66
		c-5.149-4.319-10.557-8.318-15.493-12.88c-10.984-9.567-20.855-20.315-30.323-31.359c-19.271-22.988-36.531-47.736-50.737-74.175
		C983.666,605.665,979.849,596.822,975.835,588.092 M1217.684,637.74c4.768,17.969,14.206,34.376,25.547,48.985
		c17.641,22.272,40.911,40.721,67.959,50.052c5.964,1.889,12.05,3.786,18.349,4.045c-0.861-0.564-1.691-1.12-2.544-1.63
		c-24.276-13.162-45.405-31.382-64.684-50.996c-10.207-10.184-19.819-20.985-28.419-32.563
		c-7.274-9.689-13.589-20.162-17.991-31.474C1215.376,628.76,1216.717,633.284,1217.684,637.74 M1108.28,644.428
		c0.922,9.521,4.456,18.586,8.074,27.368c11.197,25.144,29.15,47.926,53.068,62.01c11.09,6.452,23.598,11.448,36.585,11.502
		c-22.166-11.151-40.622-28.252-57.204-46.441c-11.662-12.88-22.607-26.446-32.174-40.957
		C1113.666,653.523,1111.343,648.739,1108.28,644.428z"/>
	<path fill="#F6921E" stroke="#F6921E" stroke-width="0.5" d="M289.875,516.5c21.754-15.455,48.581-22.455,75.02-23.194
		c31.451-0.792,63.016,6.68,90.947,21.092c17.55,9.072,33.614,21.107,46.83,35.815c-2.27,4.654-3.908,9.62-4.814,14.716
		c-3.313,18.532-6.65,37.065-9.971,55.597c-0.952,5.492-2.232,10.976-2.255,16.582c-12.69,3.245-25.052,8.592-35.137,17.085
		c-8.881,7.373-15.516,17.473-18.502,28.648c-3.633,13.177-2.597,27.178,0.48,40.355c3.268,13.916,8.782,27.2,15.143,39.967
		c8.135,15.79,17.253,31.108,24.108,47.53c5.134,12.355,9.384,25.502,8.988,39.037c-0.16,9.628-3.588,19.309-10.176,26.424
		c-7.48,8.135-17.58,13.756-28.274,16.384c-12.012,2.91-24.9,0.602-35.625-5.355c-12.271-6.756-22.485-16.91-30.377-28.412
		c5.522,2.993,11.372,5.652,17.672,6.398c4.677,0.625,9.834-0.213,13.497-3.374c4.167-3.542,6.101-9.003,6.901-14.267
		c1.104-7.358-1.782-14.67-5.88-20.65c-6.802-9.857-16.133-17.55-25.395-24.976c-13.025-10.199-26.622-19.637-39.89-29.501
		c-22.828-16.887-45.017-35.076-63.077-57.128c-16.034-19.568-28.29-42.579-33.446-67.464c-5.004-24.268-4.243-49.815,2.628-73.634
		C255.934,551.165,270.17,530.264,289.875,516.5 M326.353,523.294c-20.315,7.168-38.565,20.391-51.217,37.88
		c-8.729,12.111-14.693,26.248-17.024,41.01c-2.986,18.273-0.381,37.316,6.84,54.325c5.705,13.817,14.221,26.393,24.306,37.384
		c9.285,10.588,20.612,19.058,31.512,27.878c12.149,9.628,24.131,19.484,35.846,29.646c18.928,16.499,37.59,33.553,53.175,53.335
		c6.322,8.325,12.286,17.184,15.554,27.193c2.582,8.074,2.514,17.573-2.567,24.687c-2.392,4.09-6.452,6.688-9.476,10.23
		c9.278-4.205,16.278-13.68,16.887-23.948c0.762-8.775-2.102-17.359-5.797-25.182c-6.452-13.414-15.653-25.266-25.22-36.577
		c-20.795-24.078-44.476-45.451-68.523-66.207c-11.486-9.796-23.628-19.043-33.302-30.735c-7.564-8.813-14.076-18.563-18.86-29.158
		c-7.541-16.399-10.542-35.092-7.221-52.923c3.809-21.968,16.917-41.825,34.673-55.102c19.583-14.906,44.407-22.036,68.858-21.968
		c22.623-0.19,44.963,5.553,65.636,14.488c15.562,6.802,30.301,15.417,44.072,25.334c2.019,1.523,4.075,3.039,6.414,4.068
		c-2.605-3.451-6.276-5.827-9.514-8.615c-22.897-18.715-49.541-33.264-78.387-40.256
		C377.852,514.101,350.811,514.413,326.353,523.294 M367.203,559.544c-16.377,5.195-31.382,15.295-41.498,29.28
		c-9.483,13.452-13.962,30.224-12.918,46.616c1.211,14.632,5.896,28.861,13.056,41.65c6.726,12.301,15.653,23.27,25.258,33.439
		c4.928,4.875,9.697,10.062,15.508,13.916c-0.495-0.731-0.998-1.447-1.523-2.148c-15.219-18.41-29.257-38.535-36.516-61.523
		c-4.684-15.204-6.231-31.946-0.998-47.226c4.753-14.846,15.531-27.277,28.853-35.16c19.774-11.852,43.699-15.066,66.36-12.781
		c18.746,1.843,36.943,7.533,54.066,15.249c3.991,1.699,7.67,4.098,11.791,5.507c-2.879-3.207-6.688-5.309-10.199-7.731
		c-14.754-9.377-30.948-16.636-47.972-20.734C409.729,553.031,387.579,552.894,367.203,559.544z"/>
	<path fill="#F6921E" stroke="#F6921E" stroke-width="0.5" d="M1538.133,506.263c30.278-11.745,63.709-16.148,95.845-10.694
		c23.521,3.999,46.441,13.962,63.823,30.56c18.205,17.085,29.105,40.896,32.822,65.385c5.104,31.87,0.305,65.453-14.922,94.032
		c-12.126,23.209-29.943,42.899-49.45,60.152c-21.983,19.515-46.532,35.792-69.901,53.548c-9.628,7.533-19.347,15.234-26.873,24.961
		c-4.608,5.957-8.287,13.155-8.051,20.871c0.35,5.606,2.049,11.418,5.941,15.623c3.496,3.755,8.927,5.096,13.916,4.555
		c6.581-0.617,12.705-3.382,18.471-6.474c-9.826,14.099-23.08,26.682-39.563,32.395c-13.436,4.776-28.708,2.765-40.957-4.311
		c-10.062-5.446-18.89-14.152-22.112-25.372c-4.174-14.267-0.807-29.417,4.113-43.044c9.994-27.97,28.252-52.116,37.864-80.238
		c5.553-15.942,9.125-33.187,6.109-50.036c-2.125-12.477-8.6-24.131-18.052-32.54c-10.352-9.308-23.407-15.105-36.79-18.525
		c-0.038-4.182-0.739-8.318-1.516-12.423c-3.55-19.781-7.107-39.571-10.641-59.352c-0.929-5.241-2.575-10.344-4.89-15.12
		C1490.945,530.576,1513.614,515.807,1538.133,506.263 M1573.773,519.897c-28.099,6.604-54.081,20.528-76.635,38.359
		c-4.106,3.527-8.775,6.505-12.157,10.801c1.165-0.602,2.354-1.211,3.458-1.958c27.444-20.238,59.063-36.029,93.118-40.751
		c28.861-4.06,59.664,0.983,84.062,17.481c20.718,13.84,36.143,36.173,39.548,61.073c2.514,16.796-0.434,34.185-7.411,49.595
		c-5.667,12.812-13.947,24.329-23.407,34.612c-9.521,10.085-20.536,18.578-31.055,27.574c-8.973,7.762-17.824,15.661-26.561,23.689
		c-18.966,17.633-37.422,36.051-52.748,56.998c-7.389,10.298-14.206,21.381-17.245,33.812c-1.661,7.19-1.539,15.089,1.714,21.838
		c3.572,6.718,9.445,12.324,16.506,15.249c-2.658-2.651-5.926-4.601-8.432-7.404c-3.953-4.334-7.092-9.75-7.419-15.722
		c-0.884-9.354,2.902-18.311,7.48-26.241c8.912-15.173,21.076-28.099,33.393-40.546c22.158-21.67,46.106-41.414,70.343-60.7
		c9.613-7.556,19.142-15.364,27.178-24.633c16.887-18.502,29.036-42.023,31.237-67.213c1.577-18.129-2.072-36.714-10.58-52.809
		c-11.494-22.112-31.649-39.167-54.705-48.284C1628.273,514.649,1600.021,513.75,1573.773,519.897 M1499.4,577.467
		c-4.151,2.788-8.691,5.18-12.073,8.927c3.923-1.386,7.457-3.626,11.266-5.286c22.105-10.085,46.205-16.651,70.641-16.186
		c15.112,0.396,30.331,3.321,43.973,10.001c11.928,5.85,22.744,14.617,29.508,26.18c6.49,10.786,9.529,23.529,8.95,36.082
		c-0.64,12.469-3.908,24.725-8.958,36.12c-5.903,13.65-14.206,26.119-23.034,38.032c-3.214,4.517-7.244,8.409-10.222,13.086
		c5.926-3.976,10.786-9.293,15.836-14.29c10.329-11.045,19.911-22.981,26.721-36.547c6.01-11.509,9.826-24.169,11.098-37.087
		c1.143-14.175-1.912-28.671-8.744-41.147c-5.979-11.007-15.265-19.957-25.753-26.66c-13.056-8.105-28.191-12.606-43.455-13.871
		C1555.012,552.155,1524.849,561.669,1499.4,577.467z"/>
	<path fill="#FAAF40" stroke="#FAAF40" stroke-width="0.5" d="M326.353,523.294c24.458-8.881,51.499-9.194,76.666-3.214
		c28.846,6.992,55.49,21.541,78.387,40.256c3.237,2.788,6.909,5.164,9.514,8.615c-2.338-1.028-4.395-2.544-6.414-4.068
		c-13.772-9.917-28.511-18.532-44.072-25.334c-20.673-8.935-43.013-14.678-65.636-14.488c-24.451-0.069-49.275,7.061-68.858,21.968
		c-17.755,13.277-30.864,33.134-34.673,55.102c-3.321,17.831-0.32,36.524,7.221,52.923c4.784,10.595,11.296,20.345,18.86,29.158
		c9.674,11.692,21.815,20.939,33.302,30.735c24.047,20.756,47.728,42.13,68.523,66.207c9.567,11.311,18.768,23.163,25.22,36.577
		c3.694,7.823,6.558,16.407,5.797,25.182c-0.609,10.268-7.609,19.743-16.887,23.948c3.024-3.542,7.084-6.139,9.476-10.23
		c5.081-7.114,5.149-16.613,2.567-24.687c-3.268-10.009-9.232-18.867-15.554-27.193c-15.584-19.781-34.246-36.836-53.175-53.335
		c-11.715-10.161-23.697-20.018-35.846-29.646c-10.9-8.821-22.227-17.291-31.512-27.878c-10.085-10.991-18.601-23.567-24.306-37.384
		c-7.221-17.009-9.826-36.051-6.84-54.325c2.331-14.762,8.295-28.899,17.024-41.01C287.788,543.685,306.039,530.462,326.353,523.294
		z"/>
	<path fill="#FAAF40" stroke="#FAAF40" stroke-width="0.5" d="M1573.773,519.897c26.248-6.147,54.5-5.248,79.682,4.822
		c23.057,9.118,43.211,26.172,54.705,48.284c8.508,16.095,12.157,34.68,10.58,52.809c-2.201,25.19-14.35,48.711-31.237,67.213
		c-8.036,9.27-17.565,17.077-27.178,24.633c-24.237,19.286-48.185,39.03-70.343,60.7c-12.317,12.446-24.481,25.372-33.393,40.546
		c-4.578,7.929-8.364,16.887-7.48,26.241c0.327,5.972,3.466,11.387,7.419,15.722c2.506,2.803,5.774,4.753,8.432,7.404
		c-7.061-2.925-12.934-8.531-16.506-15.249c-3.252-6.749-3.374-14.648-1.714-21.838c3.039-12.431,9.856-23.514,17.245-33.812
		c15.325-20.947,33.781-39.365,52.748-56.998c8.737-8.028,17.588-15.927,26.561-23.689c10.519-8.996,21.533-17.489,31.055-27.574
		c9.46-10.283,17.74-21.8,23.407-34.612c6.977-15.409,9.925-32.799,7.411-49.595c-3.405-24.9-18.829-47.233-39.548-61.073
		c-24.397-16.499-55.201-21.541-84.062-17.481c-34.056,4.723-65.674,20.513-93.118,40.751c-1.104,0.746-2.293,1.356-3.458,1.958
		c3.382-4.296,8.051-7.274,12.157-10.801C1519.692,540.425,1545.674,526.501,1573.773,519.897z"/>
	<path fill="#FFFFFF" stroke="#FFFFFF" stroke-width="0.5" d="M510.815,549.314c8.843-14.503,25.837-23.681,42.854-22.63
		c-20.795,49.092-31.824,102.289-32.045,155.609c-15.127-6.139-26.408-20.604-28.861-36.722c-0.937-5.545-0.693-11.235,0.366-16.75
		c3.755-20.833,7.503-41.665,11.228-62.505C505.422,560.313,507.601,554.501,510.815,549.314z"/>
	<path fill="#FFFFFF" stroke="#FFFFFF" stroke-width="0.5" d="M1429.133,526.844c20.124,1.622,37.918,17.504,42.038,37.232
		c3.466,18.593,6.695,37.232,10.085,55.841c1.15,6.992,3.024,13.985,2.453,21.137c-0.83,15.28-9.582,29.805-22.615,37.796
		c-0.579-31.466-4.547-62.902-12.355-93.408C1443.758,565.432,1437.024,545.886,1429.133,526.844z"/>
	<path fill="#FAAF40" stroke="#FAAF40" stroke-width="0.5" d="M367.203,559.544c20.376-6.65,42.526-6.513,63.267-1.645
		c17.024,4.098,33.218,11.357,47.972,20.734c3.511,2.422,7.32,4.524,10.199,7.731c-4.121-1.409-7.8-3.808-11.791-5.507
		c-17.123-7.716-35.32-13.406-54.066-15.249c-22.661-2.285-46.586,0.929-66.36,12.781c-13.322,7.884-24.1,20.315-28.853,35.16
		c-5.233,15.28-3.687,32.022,0.998,47.226c7.259,22.988,21.297,43.112,36.516,61.523c0.526,0.701,1.028,1.417,1.523,2.148
		c-5.812-3.854-10.58-9.041-15.508-13.916c-9.605-10.169-18.532-21.137-25.258-33.439c-7.16-12.789-11.845-27.018-13.056-41.65
		c-1.044-16.392,3.435-33.165,12.918-46.616C335.821,574.839,350.827,564.739,367.203,559.544z"/>
	<path fill="#FAAF40" stroke="#FAAF40" stroke-width="0.5" d="M1499.4,577.467c25.449-15.798,55.612-25.311,85.753-22.645
		c15.265,1.264,30.4,5.766,43.455,13.871c10.489,6.703,19.774,15.653,25.753,26.66c6.833,12.477,9.887,26.972,8.744,41.147
		c-1.272,12.919-5.088,25.578-11.098,37.087c-6.81,13.566-16.392,25.502-26.721,36.547c-5.05,4.997-9.91,10.313-15.836,14.29
		c2.978-4.677,7.008-8.569,10.222-13.086c8.828-11.913,17.131-24.382,23.034-38.032c5.05-11.395,8.318-23.651,8.958-36.12
		c0.579-12.553-2.46-25.296-8.95-36.082c-6.764-11.563-17.58-20.33-29.508-26.18c-13.642-6.68-28.861-9.605-43.973-10.001
		c-24.435-0.465-48.536,6.101-70.641,16.186c-3.808,1.661-7.343,3.9-11.266,5.286C1490.709,582.646,1495.249,580.255,1499.4,577.467
		z"/>
	<path fill="#FAAF40" stroke="#FAAF40" stroke-width="0.5" d="M756.442,647.155c12.142-21.373,23.141-43.577,30.278-67.167
		c0.647,12.035-1.805,24.009-4.692,35.64c-7.015,26.195-19.279,51.255-37.278,71.684c-8.204,9.087-17.283,17.527-27.795,23.902
		c-5.644,3.374-11.479,6.634-17.87,8.348c5.515-5.248,11.517-9.994,16.613-15.668C731.77,686.931,744.742,667.31,756.442,647.155z"
		/>
	<path fill="#FAAF40" stroke="#FAAF40" stroke-width="0.5" d="M872.213,581.496c5.256,6.276,9.658,13.231,14.693,19.69
		c24.763,32.928,52.146,64.135,83.757,90.666c22.569,18.822,47.393,35.175,74.487,46.723c11.144,4.791,22.653,8.714,34.338,11.959
		c-7.876,0.335-15.714-1.097-23.445-2.445c-29.447-5.423-57.135-18.433-81.327-35.899c-40.431-29.386-71.326-70.191-94.512-114.103
		C877.469,592.594,874.392,587.239,872.213,581.496z"/>
	<path fill="#FAAF40" stroke="#FAAF40" stroke-width="0.5" d="M975.835,588.092c4.014,8.729,7.83,17.573,12.401,26.043
		c14.206,26.439,31.466,51.187,50.737,74.175c9.468,11.045,19.34,21.792,30.323,31.359c4.936,4.563,10.344,8.562,15.493,12.88
		c-5.103-0.906-9.681-3.496-14.32-5.66c-25.631-13.056-46.746-33.804-62.901-57.394c-11.723-17.451-21.023-36.623-26.926-56.815
		C978.486,604.621,976.041,596.479,975.835,588.092z"/>
	<path fill="#FFFFFF" stroke="#FFFFFF" stroke-width="0.5" d="M1426.711,599.152c4.296-4.806,9.468-9.239,15.859-10.862
		c15.904,63.518,15.897,130.96-0.358,194.41c-7.678,30.026-18.89,59.146-33.271,86.598c-2.575-6.033-4.014-12.477-5.614-18.814
		c-4.448-18.959-6.322-38.451-6.49-57.905c0.015-22.341,0-44.682,0.008-67.015c-0.069-14.533-0.13-29.097,1.447-43.562
		c2.087-19.781,6.132-39.51,13.718-57.95C1415.78,615.163,1420.305,606.442,1426.711,599.152z"/>
	<path fill="#FFFFFF" stroke="#FFFFFF" stroke-width="0.5" d="M539.699,589.875c3.664,1.188,6.627,3.786,9.415,6.353
		c7.754,7.526,12.949,17.222,17.207,27.04c7.762,18.715,11.784,38.778,13.833,58.865c1.767,15.935,1.203,31.976,1.287,47.964
		c0,19.82,0,39.632,0,59.451c0.267,20.01-1.691,40.066-6.048,59.603c-1.188,5.103-2.422,10.222-4.182,15.173
		c-27.65-54.043-42.427-114.614-42.914-175.306C527.793,655.656,531.899,622.301,539.699,589.875z"/>
	<path fill="#F3CBAE" stroke="#F3CBAE" stroke-width="0.5" d="M826.16,604.431c12.286,20.726,26.629,40.248,42.96,57.981
		c26.637,28.99,58.522,53.06,93.446,71.204c24.984,13.018,51.461,23.125,78.669,30.415c27.528,7.328,55.802,12.02,84.275,13.337
		c3.093,4.54,6.863,8.562,10.253,12.888c-14.518,0.746-28.998-1.135-43.387-2.841c-61.454-8.478-121.385-31.009-171.521-67.837
		c-37.499-27.315-68.881-62.696-92.41-102.617c-0.967-1.645-1.95-3.275-2.94-4.898c-8.668,30.902-22.79,60.814-44.514,84.732
		c-25.022,28.335-59.908,47.462-96.973,54.439c-5.797,1.005-11.631,2.057-17.534,1.843c2.514-3.786,5.774-7.084,7.708-11.235
		c-0.404-0.183-1.203-0.548-1.6-0.731c45.169-4.89,88.411-27.764,116.823-63.381C806.76,656.295,818.703,630.877,826.16,604.431z"/>
	<path fill="#FDDABC" stroke="#FDDABC" stroke-width="0.5" d="M780.991,696.795c21.724-23.918,35.846-53.83,44.514-84.732
		c0.99,1.622,1.973,3.253,2.94,4.898c23.529,39.921,54.911,75.302,92.41,102.617c50.135,36.828,110.066,59.36,171.521,67.837
		c14.389,1.706,28.869,3.588,43.387,2.841c-3.39-4.326-7.16-8.348-10.253-12.888c4.136,0.183,8.272,0.236,12.416,0.183
		c-13.855-15.485-26.355-32.266-36.508-50.417c-7.008-12.751-13.018-26.286-15.623-40.683c2.506,2.415,4.205,5.477,6.094,8.371
		c7.495,10.816,16.003,21.031,26.043,29.607c20.094,17.953,44.484,30.72,70.115,38.794c13.467,4.25,27.322,7.503,41.414,8.767
		c-4.014-4.578-8.508-8.828-11.532-14.168c4.517,0.777,9.08,1.379,13.65,1.805c-11.738-12.088-21.975-25.715-29.722-40.698
		c-6.368-12.454-10.862-26.142-11.052-40.233c3.527,4.532,5.949,9.803,9.46,14.35c15.95,22.828,38.893,40.005,63.762,52.093
		c14.251,6.68,29.105,12.081,44.392,15.859c9.788,2.293,19.652,4.791,29.752,5.103c-1.203-4.197-2.422-8.379-3.58-12.576
		c2.019,0.259,4.037,0.495,6.086,0.731c-2.887-9.773-5.819-19.576-7.35-29.676c9.872,2.377,19.591,6.398,27.216,13.269
		c1.836,15.882,2.171,31.915,1.584,47.888c-1.638,31.108-9.765,61.729-22.844,89.957c-12.736,27.566-30.034,52.946-50.448,75.393
		c0.823-14.343-2.62-29.12-10.74-41.071c-11.494-17.953-32.624-29.508-53.982-29.074c-15.295-0.67-30.521,5.172-42.236,14.876
		c-9.415,7.579-16.042,18.151-20.14,29.425c-4.41,13.962-4.403,29.44,0.792,43.189c8.234,23.24,30.994,40.698,55.658,42.176
		c-11.715,7.983-24.321,14.579-37.011,20.855c-35.145,16.78-73.405,27.939-112.473,29.341c-39.357,0.244-78.714,0.046-118.064,0.107
		c-17.032-0.229-34.117,0.693-51.087-1.059c-48.764-4.875-95.48-23.537-136.467-50.006c-5.119-3.504-10.519-6.65-15.226-10.71
		c8.881,2.765,18.403,4.25,27.627,2.361c15.836-2.338,30.224-12.02,38.71-25.54c10.694-16.483,11.814-38.786,2.392-56.092
		c-1.242-2.194-2.552-4.395-3.077-6.878c-0.168-1.546-0.069-3.153-0.64-4.608c-0.8-1.287-1.95-2.308-3.001-3.367
		c-11.525-12.644-28.785-19.446-45.801-18.768c-11.296,0.807-22.577,4.182-31.786,10.915c-3.847,2.971-7.906,5.804-10.854,9.727
		c-7.769,9.377-13.147,20.954-14.122,33.172c-1.363,9.46,0.914,18.906,3.519,27.947c-3.428-2.156-6.056-5.286-8.805-8.188
		c-30.004-30.872-54.355-67.716-68.447-108.535c-5.72-16.506-9.712-33.622-11.784-50.973c-0.114-1.089-0.137-2.194,0.107-3.252
		c1.303-4.837,1.501-9.872,2.422-14.777c2.384-13.764,5.56-27.482,10.725-40.492c1.95-2.338,3.626-4.883,5.149-7.526
		c9.636-15.592,24.245-28.792,42.13-33.911c-0.358,15.135-6.863,29.6-16.255,41.277c2.171-0.183,4.349-0.373,6.528-0.518
		c0.396,0.183,1.196,0.548,1.6,0.731c-1.935,4.151-5.195,7.45-7.708,11.235c5.903,0.213,11.738-0.838,17.534-1.843
		C721.083,744.257,755.969,725.131,780.991,696.795 M774.319,774.946c0.495,10.138,6.086,19.355,13.695,25.829
		c-12.05-1.417-22.531-9.377-28.602-19.66c4.182,14.8,16.803,26.896,31.809,30.392c-2.491,12.652-1.554,26.355,4.403,37.948
		c3.047,5.766,7.975,11.464,14.8,12.401c5.736,0.884,11.243-2.293,14.769-6.627c6.307-7.701,8.874-17.801,9.445-27.574
		c0.495-10.953-1.432-22.447-7.548-31.74c-3.306-5.012-8.676-9.491-14.998-9.24c-6.124-0.069-11.09,4.342-14.465,9.041
		C786.925,793.402,777.731,785.397,774.319,774.946 M1191.512,794.499c-3.214-4.045-7.731-7.648-13.109-7.807
		c-4.989-0.373-9.651,2.346-12.88,5.964c-5.827,6.429-8.539,15.051-9.712,23.499c-0.769,6.886-0.686,13.932,0.754,20.734
		c1.699,7.891,4.951,15.889,11.212,21.267c3.877,3.405,9.529,4.806,14.472,3.108c5.637-2.034,9.628-6.932,12.332-12.096
		c6.002-11.982,6.817-26.111,3.93-39.075c12.987-4.669,23.331-15.882,27.185-29.097c-6.101,10.344-16.643,18.342-28.747,19.789
		c7.526-6.33,13.094-15.394,13.696-25.365C1207.31,784.109,1200.37,791.399,1191.512,794.499 M1199.997,862.215
		c-4.448,1.942-4.822,9.049-0.571,11.403c3.572,2.201,8.668-0.632,8.722-4.814C1208.978,864.446,1204.156,860.135,1199.997,862.215
		 M788.608,872.109c-4.867,1.462-5.599,8.82-1.402,11.487c3.374,2.468,8.539-0.061,8.965-4.136
		C797.299,875.156,792.958,870.555,788.608,872.109 M878.642,877.586c-4.227,2.62-3.527,10.047,1.356,11.487
		c4.342,1.561,8.699-3.07,7.556-7.35C887.074,877.669,882.039,875.285,878.642,877.586 M1110.87,881.341
		c-4.768,1.325-5.766,8.364-1.912,11.258c3.138,2.567,8.333,0.716,9.194-3.245C1119.752,885.028,1115.448,879.84,1110.87,881.341
		 M839.627,885.165c-4.601-0.099-7.548,5.53-5.332,9.415c1.577,3.633,6.97,4.479,9.514,1.386
		C847.283,892.37,844.875,885.18,839.627,885.165 M1155.78,885.865c-3.816,1.402-5.05,6.657-2.727,9.849
		c1.584,2.399,5.073,3.154,7.548,1.706c3.489-1.889,4.128-7.221,1.409-10.024C1160.472,885.69,1157.921,885.058,1155.78,885.865
		 M857.169,913.15c-4.471,2.415-3.946,10.085,1.013,11.608c4.296,1.645,8.638-2.932,7.663-7.168
		C865.373,913.69,860.62,911.032,857.169,913.15 M1128.488,914.102c-4.913,1.79-5.111,9.765-0.274,11.761
		c3.656,1.76,8.127-1.234,8.257-5.202C1137.08,916.456,1132.609,912.297,1128.488,914.102 M906.848,936.001
		c3.176,35.206,25.372,68.462,57.524,83.574c14.587,6.97,31.489,9.239,47.264,5.332c15.28-3.557,29.31-11.707,40.561-22.569
		c18.083-17.314,28.739-41.574,30.978-66.375C1024.402,936.054,965.621,935.97,906.848,936.001z"/>
	<path fill="#FAAF40" stroke="#FAAF40" stroke-width="0.5" d="M1217.684,637.74c-0.967-4.456-2.308-8.98-1.782-13.581
		c4.403,11.311,10.717,21.785,17.991,31.474c8.6,11.578,18.212,22.379,28.419,32.563c19.279,19.614,40.408,37.834,64.684,50.996
		c0.853,0.51,1.683,1.066,2.544,1.63c-6.299-0.259-12.385-2.156-18.349-4.045c-27.048-9.331-50.318-27.779-67.959-50.052
		C1231.89,672.116,1222.452,655.709,1217.684,637.74z"/>
	<path fill="#FAAF40" stroke="#FAAF40" stroke-width="0.5" d="M1108.28,644.428c3.062,4.311,5.385,9.095,8.348,13.482
		c9.567,14.51,20.513,28.076,32.174,40.957c16.582,18.19,35.038,35.29,57.204,46.441c-12.987-0.053-25.494-5.05-36.585-11.502
		c-23.917-14.084-41.871-36.866-53.068-62.01C1112.736,663.014,1109.202,653.949,1108.28,644.428z"/>
	<path fill="#F3CBAE" stroke="#F3CBAE" stroke-width="0.5" d="M1191.854,666.792c2.872,5.058,5.819,10.077,9.232,14.8
		c13.802,19.477,32.791,34.871,53.7,46.19c24.748,13.337,52.017,21.762,79.804,25.746c1.158,4.197,2.377,8.379,3.58,12.576
		c-10.1-0.312-19.964-2.811-29.752-5.103c-15.287-3.778-30.141-9.179-44.392-15.859c-24.87-12.088-47.812-29.265-63.762-52.093
		c-3.511-4.547-5.934-9.818-9.46-14.35C1190.758,674.706,1191.276,670.737,1191.854,666.792z"/>
	<path fill="#F3CBAE" stroke="#F3CBAE" stroke-width="0.5" d="M1084.584,670.669c2.262,3.664,4.365,7.442,6.779,11.022
		c12.241,18.57,28.732,34.162,47.447,46.114c23.948,15.287,51.194,25.091,79.118,30.019c3.024,5.34,7.518,9.59,11.532,14.168
		c-14.091-1.264-27.947-4.517-41.414-8.767c-25.631-8.074-50.021-20.84-70.115-38.794c-10.039-8.577-18.547-18.791-26.043-29.607
		c-1.889-2.894-3.588-5.957-6.094-8.371C1084.774,681.256,1084.416,675.955,1084.584,670.669z"/>
	<path fill="#F3CBAE" stroke="#F3CBAE" stroke-width="0.5" d="M654.853,707.04c7.038-7.99,16.201-14.198,26.515-17.062
		c0.533,3.435,0.975,6.893,0.952,10.374c-17.885,5.119-32.494,18.319-42.13,33.911c-1.523,2.643-3.199,5.187-5.149,7.526
		C639.604,729.221,645.941,717.095,654.853,707.04z"/>
	<path fill="#F3CBAE" stroke="#F3CBAE" stroke-width="0.5" d="M1333.63,714.695c0.465-1.234,1.836-1.165,2.902-0.876
		c9.674,2.308,18.121,8.866,23.156,17.397c0.526,2.171,0.602,4.418,0.853,6.634c-7.625-6.871-17.344-10.892-27.216-13.269
		C1332.968,721.322,1332.267,717.803,1333.63,714.695z"/>
	<path fill="#231F20" stroke="#231F20" stroke-width="0.5" d="M774.319,774.946c3.412,10.451,12.606,18.456,23.308,20.772
		c3.374-4.7,8.341-9.11,14.465-9.041c6.322-0.251,11.692,4.227,14.998,9.24c6.117,9.293,8.044,20.787,7.548,31.74
		c-0.571,9.773-3.138,19.873-9.445,27.574c-3.527,4.334-9.034,7.51-14.769,6.627c-6.825-0.937-11.753-6.634-14.8-12.401
		c-5.957-11.593-6.893-25.296-4.403-37.948c-15.005-3.496-27.627-15.592-31.809-30.392c6.071,10.283,16.552,18.243,28.602,19.66
		C780.405,794.301,774.814,785.084,774.319,774.946 M807.575,798.079c-2.232,1.485-3.435,4.068-4.121,6.573
		c-1.363,5.134-1.234,10.71,0.632,15.699c0.891,2.232,2.331,4.745,4.905,5.21c2.323,0.366,4.113-1.577,5.157-3.397
		c2.476-4.563,2.658-9.986,2.034-15.021c-0.541-2.955-1.424-6.071-3.61-8.242C811.33,797.569,809.159,797.043,807.575,798.079z"/>
	<path fill="#231F20" stroke="#231F20" stroke-width="0.5" d="M1191.512,794.499c8.859-3.1,15.798-10.39,19.134-19.081
		c-0.602,9.971-6.17,19.035-13.696,25.365c12.104-1.447,22.646-9.445,28.747-19.789c-3.854,13.216-14.198,24.428-27.185,29.097
		c2.887,12.964,2.072,27.094-3.93,39.075c-2.704,5.164-6.695,10.062-12.332,12.096c-4.943,1.699-10.595,0.297-14.472-3.108
		c-6.261-5.378-9.514-13.375-11.212-21.267c-1.44-6.802-1.523-13.848-0.754-20.734c1.173-8.447,3.885-17.07,9.712-23.499
		c3.23-3.618,7.891-6.337,12.88-5.964C1183.781,786.852,1188.297,790.454,1191.512,794.499 M1172.591,798.323
		c-3.435,2.795-4.273,7.571-4.608,11.761c-0.152,4.745,0.48,9.933,3.519,13.772c1.363,1.897,4.365,2.399,6.094,0.701
		c2.971-2.689,3.816-6.901,4.205-10.702c0.297-4.799-0.213-9.963-2.994-14.023C1177.519,797.843,1174.61,796.7,1172.591,798.323z"/>
	<path fill="#FFFFFF" stroke="#FFFFFF" stroke-width="0.5" d="M807.575,798.079c1.584-1.036,3.755-0.51,4.997,0.823
		c2.186,2.171,3.07,5.286,3.61,8.242c0.625,5.035,0.442,10.458-2.034,15.021c-1.044,1.82-2.834,3.763-5.157,3.397
		c-2.575-0.465-4.014-2.978-4.905-5.21c-1.866-4.989-1.996-10.565-0.632-15.699C804.14,802.147,805.343,799.564,807.575,798.079z"/>
	<path fill="#FFFFFF" stroke="#FFFFFF" stroke-width="0.5" d="M1172.591,798.323c2.019-1.622,4.928-0.48,6.215,1.508
		c2.78,4.06,3.291,9.224,2.994,14.023c-0.388,3.801-1.234,8.013-4.205,10.702c-1.729,1.699-4.73,1.196-6.094-0.701
		c-3.039-3.839-3.672-9.026-3.519-13.772C1168.318,805.894,1169.156,801.118,1172.591,798.323z"/>
	<path fill="#D1A275" stroke="#D1A275" stroke-width="0.5" d="M1199.997,862.215c4.159-2.079,8.981,2.232,8.15,6.589
		c-0.053,4.182-5.149,7.015-8.722,4.814C1195.176,871.264,1195.549,864.157,1199.997,862.215z"/>
	<path fill="#D1A275" stroke="#D1A275" stroke-width="0.5" d="M788.608,872.109c4.349-1.554,8.691,3.047,7.564,7.35
		c-0.427,4.075-5.591,6.604-8.965,4.136C783.01,880.93,783.741,873.572,788.608,872.109z"/>
	<path fill="#D1A275" stroke="#D1A275" stroke-width="0.5" d="M878.642,877.586c3.397-2.3,8.432,0.084,8.912,4.136
		c1.143,4.281-3.214,8.912-7.556,7.35C875.115,887.633,874.414,880.206,878.642,877.586z"/>
	<path fill="#D1A275" stroke="#D1A275" stroke-width="0.5" d="M1110.87,881.341c4.578-1.501,8.881,3.687,7.282,8.013
		c-0.861,3.961-6.056,5.812-9.194,3.245C1105.104,889.704,1106.102,882.666,1110.87,881.341z"/>
	<path fill="#D1A275" stroke="#D1A275" stroke-width="0.5" d="M839.627,885.165c5.248,0.015,7.655,7.206,4.182,10.801
		c-2.544,3.093-7.937,2.247-9.514-1.386C832.079,890.695,835.027,885.066,839.627,885.165z"/>
	<path fill="#D1A275" stroke="#D1A275" stroke-width="0.5" d="M1155.78,885.865c2.14-0.807,4.692-0.175,6.231,1.531
		c2.719,2.803,2.079,8.135-1.409,10.024c-2.476,1.447-5.964,0.693-7.548-1.706C1150.73,892.523,1151.964,887.267,1155.78,885.865z"
		/>
	<path fill="#D1A275" stroke="#D1A275" stroke-width="0.5" d="M803.165,907.102c1.546-2.095,4.357-2.034,6.703-2.087
		c1.051,1.059,2.201,2.079,3.001,3.367c0.571,1.455,0.472,3.062,0.64,4.608c-1.203,2.62-3.595,5.271-6.794,4.601
		C801.946,917.012,800.042,910.499,803.165,907.102z"/>
	<path fill="#D1A275" stroke="#D1A275" stroke-width="0.5" d="M1178.51,909.212c2.041-2.293,5.286-1.516,7.853-0.731
		c1.805,2.757,3.146,6.52,0.807,9.407c-1.767,2.712-5.233,2.331-7.967,1.767C1176.628,916.859,1175.402,912.091,1178.51,909.212z"/>
	<radialGradient id="SVGID_1_" cx="764.9436" cy="944.2731" r="58.0603" gradientUnits="userSpaceOnUse">
		<stop  offset="0" style="stop-color:#F8B1A4"/>
		<stop  offset="1" style="stop-color:#FBCDB5"/>
	</radialGradient>
	<path fill="url(#SVGID_1_)" stroke="#F8B1A4" stroke-width="0.5" d="M816.586,919.868c-1.242-2.194-2.552-4.395-3.077-6.878
		c-1.203,2.62-3.595,5.271-6.794,4.601c-4.768-0.579-6.673-7.091-3.549-10.489c1.546-2.095,4.357-2.034,6.703-2.087
		c-11.525-12.644-28.785-19.446-45.801-18.768c-11.296,0.807-22.577,4.182-31.786,10.915c-3.847,2.971-7.906,5.804-10.854,9.727
		c-7.769,9.377-13.147,20.954-14.122,33.172c-1.363,9.46,0.914,18.906,3.519,27.947c0.571,1.28,1.767,2.148,2.75,3.138
		c7.488,6.977,15.242,13.68,23.308,19.995c3.656,2.651,7.023,5.774,10.976,7.998c8.881,2.765,18.403,4.25,27.627,2.361
		c15.836-2.338,30.224-12.02,38.71-25.54C824.888,959.477,826.008,937.174,816.586,919.868z"/>
	<radialGradient id="SVGID_2_" cx="1223.739" cy="945.7512" r="65.0366" gradientUnits="userSpaceOnUse">
		<stop  offset="0" style="stop-color:#F8B1A4"/>
		<stop  offset="1" style="stop-color:#FBCDB5"/>
	</radialGradient>
	<path fill="url(#SVGID_2_)" stroke="#F8B1A4" stroke-width="0.5" d="M1278.095,910.019c-11.494-17.953-32.624-29.508-53.982-29.074
		c-15.295-0.67-30.521,5.172-42.236,14.876c-9.415,7.579-16.042,18.151-20.14,29.425c-4.41,13.962-4.403,29.44,0.792,43.189
		c8.234,23.24,30.994,40.698,55.658,42.176c3.755-1.958,7.114-4.578,10.633-6.916c4.098-3.1,8.691-5.614,12.309-9.293
		c0.937-0.404,1.767-1.021,2.605-1.622c6.543-5.126,12.972-10.397,19.157-15.95c2.734-2.689,6.071-4.89,8.272-8.059
		c1.554-1.074,3.016-2.293,4.326-3.656c4.494-4.631,9.11-9.148,13.345-14.023C1289.657,936.747,1286.214,921.97,1278.095,910.019z
		 M1178.51,909.212c2.041-2.293,5.286-1.516,7.853-0.731c1.805,2.757,3.146,6.52,0.807,9.407c-1.767,2.712-5.233,2.331-7.967,1.767
		C1176.628,916.859,1175.402,912.091,1178.51,909.212z"/>
	<path fill="#D1A275" stroke="#D1A275" stroke-width="0.5" d="M857.169,913.15c3.451-2.118,8.204,0.541,8.676,4.441
		c0.975,4.235-3.367,8.813-7.663,7.168C853.224,923.235,852.698,915.564,857.169,913.15z"/>
	<path fill="#D1A275" stroke="#D1A275" stroke-width="0.5" d="M1128.488,914.102c4.121-1.805,8.592,2.354,7.983,6.558
		c-0.13,3.969-4.601,6.962-8.257,5.202C1123.377,923.867,1123.575,915.892,1128.488,914.102z"/>
	<path fill="#231F20" stroke="#231F20" stroke-width="0.5" d="M906.848,936.001c58.773-0.03,117.554,0.053,176.327-0.038
		c-2.239,24.801-12.896,49.061-30.978,66.375c-11.25,10.862-25.281,19.012-40.561,22.569c-15.775,3.907-32.677,1.638-47.264-5.332
		C932.22,1004.463,910.024,971.207,906.848,936.001 M982.119,974.878c-9.994,9.864-15.272,23.514-17.451,37.179
		c10.412,6.086,22.623,9.3,34.703,8.348c11.288-0.952,22.15-5.096,31.809-10.923c11.791-7.175,22.257-17.39,27.437-30.4
		c-2.095-3.489-4.799-6.566-7.823-9.262c-9.141-8.097-21.876-11.22-33.865-10.199C1004.072,960.589,991.252,965.585,982.119,974.878
		z"/>
	<path fill="#BE1E2D" stroke="#BE1E2D" stroke-width="0.5" d="M982.119,974.878c9.133-9.293,21.952-14.289,34.81-15.257
		c11.989-1.021,24.725,2.102,33.865,10.199c3.024,2.696,5.728,5.774,7.823,9.262c-5.18,13.01-15.645,23.224-27.437,30.4
		c-9.658,5.827-20.52,9.971-31.809,10.923c-12.081,0.952-24.291-2.262-34.703-8.348
		C966.847,998.392,972.126,984.742,982.119,974.878z"/>
	<path fill="#BBBDBF" stroke="#BBBDBF" stroke-width="0.5" d="M1250.437,1046.722c20.078-12.195,39.113-26.081,57.113-41.17
		c2.879-0.236,5.819-0.769,8.699-0.122c5.339,1.257,9.536,6.315,9.598,11.837c0.449,6.353-4.677,12.477-11.022,13.086
		c-8.394,0.922-16.818,1.592-25.212,2.506c0.008,0.739,0.031,1.493,0.061,2.255c8.143,0.579,16.278,1.249,24.42,1.874
		c4.075,0.198,8.066,2.331,10.222,5.842c3.458,5.279,2.232,13.132-2.887,16.91c-2.727,2.118-6.276,3.009-9.689,2.582
		c-8.196-0.663-16.384-1.302-24.58-1.92c-0.076,0.533-0.221,1.592-0.297,2.125c8.067,2.034,16.118,4.136,24.184,6.2
		c2.978,0.716,5.797,2.331,7.632,4.837c3.382,4.387,3.336,10.984-0.053,15.364c-3.032,4.182-8.752,5.888-13.665,4.525
		c-8.196-2.095-16.369-4.25-24.557-6.337c-0.183,0.488-0.541,1.455-0.724,1.935c7.983,3.702,16.049,7.244,24.016,10.976
		c6.056,2.734,8.569,10.572,5.918,16.521c-2.514,5.987-10.001,9.141-16.042,6.749c-8.059-3.359-15.828-7.434-23.925-10.671
		c-0.32,0.373-0.967,1.104-1.287,1.47c7.267,5.164,14.739,10.039,22.006,15.204c5.599,4.212,6.337,13.223,1.584,18.334
		c-4.014,4.768-11.639,5.698-16.704,2.102c-6.825-4.639-13.604-9.331-20.421-13.97c-0.343,0.457-1.028,1.379-1.371,1.843
		c3.595,3.42,7.152,6.87,10.633,10.412c2.765,2.765,5.827,5.256,8.303,8.302c3.839,4.913,3.252,12.621-1.371,16.841
		c-4.525,4.494-12.553,4.738-17.207,0.328c-5.88-5.515-11.486-11.311-17.306-16.879c-0.602,0.571-1.181,1.158-1.76,1.752
		c4.54,6.337,9.087,12.667,13.596,19.02c2.27,3.115,2.971,7.244,1.904,10.946c-0.914,3.633-3.702,6.368-6.84,8.226
		c-8.394-6.261-17.07-12.134-25.639-18.136c-0.96-1.302-1.866-2.613-2.78-3.915c-0.373,0.244-1.112,0.739-1.485,0.983
		c-6.497-4.357-13.071-8.615-19.545-13.002c-1.683-1.143-3.55-1.942-5.423-2.674c1.021-5.667-0.015-11.639-2.902-16.613
		c3.504-0.533,7.137-0.114,10.222,1.729c0.008-4.288,1.592-8.775,5.202-11.319c3.588-2.834,8.546-2.986,12.759-1.63
		c-0.967-4.601,0.259-9.773,3.961-12.85c3.024-2.887,7.434-3.58,11.448-2.955c-1.539-3.946-1.615-8.623,0.769-12.241
		c2.399-3.999,7.069-6.162,11.669-5.964c-3.481-5.042-3.009-12.416,1.554-16.635c1.958-2.034,4.684-2.971,7.381-3.58
		c-2.232-2.635-3.908-5.918-3.649-9.46c-0.046-5.454,3.938-10.283,9.019-11.959
		C1252.92,1053.974,1251.054,1050.485,1250.437,1046.722z"/>
	<path fill="#FFFFFF" stroke="#FFFFFF" stroke-width="0.5" d="M1166.475,1087.694c1.874-0.206,3.534,1.15,5.088,2.041
		c6.002,3.999,9.887,11.022,9.94,18.25c0.236,8.082-3.839,16.156-10.527,20.711c-3.054,2.125-6.688,3.138-10.153,4.365
		c-65.507,22.516-135.637,31.565-204.7,26.081c-42.206-3.275-83.978-11.936-124.066-25.517c-5.903-1.935-12.279-3.877-16.285-8.965
		c-7.922-8.722-8.135-23.369,0.16-31.908c1.661-1.409,3.496-4.258,5.972-3.077c91.526,32.921,192.688,38.001,287.231,15.409
		C1128.587,1100.491,1147.691,1094.504,1166.475,1087.694z"/>
	<path fill="#E44044" stroke="#E44044" stroke-width="0.5" d="M808.078,1125.452c2.78,4.288,6.551,7.983,11.106,10.352
		c5.324,2.834,11.372,3.847,16.803,6.429c8.881,32.167,7.861,66.984-2.933,98.564c-1.79,4.943-3.367,10.039-6.101,14.564
		c-4.776,7.815-13.825,12.979-23.057,12.362c-2.209-0.35-4.372-0.952-6.436-1.798c-8.135-4.022-13.01-13.17-12.355-22.15
		c0.259-4.738,2.369-9.034,3.93-13.421c8.013-21.83,9.826-45.847,5.439-68.668c-0.449-2.338-1.013-4.646-1.561-6.947
		c-1.859-6.947-0.929-14.777,3.329-20.68C799.013,1129.877,803.424,1127.12,808.078,1125.452z"/>
	<path fill="#E44044" stroke="#E44044" stroke-width="0.5" d="M1160.061,1140.366c5.141-1.813,10.55-3.237,15.067-6.421
		c4.25,2.072,8.074,5.141,10.504,9.255c2.887,4.974,3.923,10.946,2.902,16.613c-0.442,2.11-0.967,4.212-1.432,6.322
		c-4.837,22.166-3.847,45.641,3.191,67.236c1.455,5.058,3.725,9.841,5.18,14.914c1.615,8.958-1.859,18.875-9.643,23.925
		c-2.019,1.211-4.182,2.171-6.429,2.833c-11.25,2.163-22.76-4.974-27.208-15.234c-13.094-30.613-16.537-65.194-10.108-97.848
		c1.219-6.025,2.338-12.218,5.538-17.573C1151.774,1143.085,1155.925,1141.745,1160.061,1140.366z"/>
	<path fill="#FFFFFF" stroke="#FFFFFF" stroke-width="0.5" d="M835.986,1142.232c4.532,0.983,8.889,2.582,13.345,3.877
		c39.601,11.738,80.604,18.822,121.873,20.749c0.084,84.96,0.023,169.929,0.03,254.889c0.168,4.479-0.853,9.514,1.889,13.452
		c3.458,4.898,9.399,7.282,15.097,8.394c8.325,1.455,17.39,0.686,24.771-3.679c3.969-2.316,7.236-6.444,7-11.243
		c0.023-87.268-0.046-174.544,0.038-261.813c43.257-2.011,86.217-9.712,127.593-22.47c-3.199,5.355-4.319,11.547-5.538,17.573
		c-6.429,32.654-2.986,67.236,10.108,97.848c4.448,10.26,15.958,17.397,27.208,15.234c0.586,6.429,1.074,12.873,1.417,19.332
		c-14.891,1.455-29.47,6.916-41.178,16.323c-15.234,11.928-25.228,30.659-25.372,50.135c-0.038,18.037-0.015,36.074-0.015,54.112
		c0.023,15.699,6.299,31.154,16.834,42.732c12.736,14.259,31.222,22.714,50.151,24.39c-1.813,33.842-4.639,67.632-8.242,101.337
		c-37.057,4.913-74.548,6.474-111.894,4.997c-17.969-0.686-35.914-2.087-53.746-4.41c0.099-22.387,0.099-44.781,0.008-67.159
		c-6.322,1.561-12.789,3.07-19.34,2.521c-4.387-0.244-8.6-1.546-12.766-2.818c-0.015,22.386-0.038,44.773,0.015,67.167
		c-34.376,4.555-69.14,5.918-103.782,4.913c-22.166-0.739-44.339-2.331-66.283-5.614c-4.494-33.378-8.013-66.908-9.552-100.56
		c14.739-0.625,29.44-4.905,41.65-13.315c17.664-11.723,29.927-32.022,29.965-53.456c-0.053-19.027,0.061-38.062-0.046-57.082
		c-0.64-15.844-7.876-31.07-19.012-42.237c-12.37-12.644-29.44-20.2-46.959-21.937c0.739-8.912,1.76-17.793,2.643-26.69
		c9.232,0.617,18.281-4.547,23.057-12.362c2.734-4.525,4.311-9.62,6.101-14.564C843.847,1209.216,844.868,1174.399,835.986,1142.232
		z"/>
	<path fill="#D0D2D3" stroke="#D0D2D3" stroke-width="0.5" d="M652.637,1261.606c43.143-40.073,90.658-75.249,140.275-106.867
		c0.548,2.3,1.112,4.608,1.561,6.947c-41.894,26.66-82.096,56.069-119.549,88.7c-14.891,13.109-29.47,26.614-43.135,41.01
		c-1.272-0.457-2.59-0.785-3.885-1.127c-2.514,2.255-4.89,4.654-7.061,7.244c1.112,0.579,2.232,1.158,3.367,1.721
		c-5.202,5.873-10.473,11.692-15.592,17.656c-1.203-0.442-2.43-0.853-3.702-0.975c-2.567,1.881-4.296,4.631-6.315,7.038
		c1.158,0.609,2.316,1.226,3.504,1.79c-8.005,10.108-15.828,20.383-22.882,31.184c-2.346-0.503-4.7-0.96-7.061-1.364
		C594.694,1320.159,622.656,1289.63,652.637,1261.606z"/>
	<path fill="#D0D2D3" stroke="#D0D2D3" stroke-width="0.5" d="M1188.534,1159.812c1.874,0.731,3.74,1.531,5.423,2.674
		c6.474,4.387,13.048,8.645,19.545,13.002c1.409,0.99,2.826,1.95,4.266,2.932c8.569,6.002,17.245,11.875,25.639,18.136
		c37.506,27.315,73.383,57.044,105.808,90.277c20.391,20.909,39.319,43.326,55.612,67.594c-2.407,0.396-4.806,0.861-7.19,1.363
		c-7.053-10.862-15.166-20.977-23.141-31.161c0.944-0.548,1.874-1.127,2.818-1.699c-1.569-2.064-3.009-4.25-4.89-6.04
		c-1.219-1.47-3.192-0.449-4.677-0.084c-4.936-5.934-10.352-11.441-15.303-17.352c0.853-0.701,1.714-1.402,2.59-2.087
		c-2.148-2.521-4.471-4.883-6.916-7.099c-1.188,0.411-2.369,0.823-3.527,1.287c-34.787-35.724-73.634-67.274-114.179-96.211
		c-14.213-10.062-28.61-19.873-43.31-29.211C1187.566,1164.024,1188.092,1161.922,1188.534,1159.812z"/>
	<path fill="#FFFFFF" stroke="#FFFFFF" stroke-width="0.5" d="M674.924,1250.386c37.453-32.631,77.656-62.041,119.549-88.7
		c4.387,22.821,2.575,46.837-5.439,68.668c-3.908,3.222-7.107,7.175-10.58,10.847c-18.761,20.551-36.272,42.252-52.108,65.141
		c-6.109,8.935-12.187,17.923-17.58,27.315c-10.222-6.216-20.109-12.979-30.59-18.761c-12.317-6.939-24.847-13.52-37.712-19.378
		c-2.955-1.249-5.797-2.727-8.676-4.121C645.454,1277,660.033,1263.495,674.924,1250.386z"/>
	<path fill="#FFFFFF" stroke="#FFFFFF" stroke-width="0.5" d="M1190.293,1233.37c-7.038-21.594-8.028-45.07-3.191-67.236
		c14.701,9.339,29.097,19.149,43.31,29.211c40.546,28.937,79.392,60.487,114.179,96.211c-22.813,9.826-44.781,21.594-65.766,34.863
		c-3.557,2.293-7.053,4.692-10.801,6.657c-12.385-20.688-26.667-40.188-41.719-59.009
		C1214.828,1260.052,1203.082,1246.205,1190.293,1233.37z"/>
	<path fill="#FFFFFF" stroke="#FFFFFF" stroke-width="0.5" d="M977.945,1167.155c11.776,0.335,23.567,0.305,35.351,0.023
		c0.069,87.162,0.015,174.323,0.023,261.478c0.19,2.719-2.087,4.654-4.22,5.88c-5.736,3.146-12.576,3.557-18.951,2.689
		c-3.991-0.746-8.211-2.019-11.029-5.103c-1.135-1.135-1.242-2.803-1.234-4.288C977.96,1340.945,977.839,1254.05,977.945,1167.155z"
		/>
	<path fill="#D0D2D3" stroke="#D0D2D3" stroke-width="0.5" d="M778.455,1241.2c3.473-3.671,6.672-7.625,10.58-10.847
		c-1.561,4.387-3.671,8.683-3.93,13.421c-41.932,45.687-78.12,97.33-102.137,154.725c-1.813-1.363-3.679-2.651-5.576-3.885
		c3.397-7.929,6.749-15.912,10.9-23.483c0.792,0.015,1.584,0.015,2.392,0.046c1.447-2.552,2.727-5.195,3.854-7.899
		c-0.556-0.518-1.112-1.013-1.668-1.485c3.329-6.604,6.939-13.063,10.649-19.462c0.64,0.35,1.287,0.708,1.95,1.074
		c1.699-2.415,3.199-4.959,4.448-7.625c-0.388-0.724-0.769-1.432-1.15-2.125c5.393-9.392,11.471-18.38,17.58-27.315
		C742.183,1283.452,759.694,1261.751,778.455,1241.2z"/>
	<path fill="#D0D2D3" stroke="#D0D2D3" stroke-width="0.5" d="M1190.293,1233.37c12.789,12.835,24.535,26.682,36.013,40.698
		c15.051,18.822,29.333,38.321,41.719,59.009c-0.686,0.784-1.401,1.592-1.752,2.605c0.823,2.818,2.75,5.119,4.395,7.51
		c0.914-0.404,1.836-0.807,2.765-1.219c3.58,6.109,7.472,12.104,10.161,18.677c-0.526,1.15-1.683,2.308-1.226,3.671
		c0.769,2.544,2.277,4.768,3.572,7.084c0.929-0.495,1.874-0.975,2.811-1.47c3.984,7.853,7.747,15.828,11.197,23.933
		c-1.904,1.203-3.778,2.445-5.599,3.763c-23.666-55.224-58.659-104.963-98.877-149.347
		C1194.018,1243.211,1191.748,1238.428,1190.293,1233.37z"/>
	<path fill="#D0D2D3" stroke="#D0D2D3" stroke-width="0.5" d="M797.459,1265.925c2.064,0.845,4.228,1.447,6.436,1.798
		c-0.884,8.897-1.904,17.778-2.643,26.69c17.519,1.737,34.589,9.293,46.959,21.937c11.136,11.167,18.372,26.393,19.012,42.237
		c0.107,19.02-0.008,38.055,0.046,57.082c-0.038,21.434-12.302,41.734-29.965,53.456c-12.21,8.409-26.911,12.69-41.65,13.315
		c1.539,33.652,5.058,67.182,9.552,100.56c-0.411,0.282-1.242,0.853-1.653,1.143c0.67,3.062-0.366,7.693,3.138,9.232
		c1.318,6.688,2.133,13.467,3.352,20.185c-1.318,2.377-1.988,5.141-1.203,7.83c0.48,2.917,2.491,5.195,3.915,7.693
		c3.1,17.633,6.642,35.183,10.374,52.695c2.026,9.971,4.563,20.406,11.357,28.313c4.387,5.233,10.633,8.569,17.176,10.26
		c7.206,1.92,14.693,2.323,22.112,2.613c20.497,0.32,41.17,0.168,61.371-3.74c10.382-2.133,20.97-5.073,29.653-11.38
		c5.995-4.327,10.405-11.174,10.397-18.73c0.107-21.076,0.015-42.153,0.038-63.229c0.495-0.053,1.485-0.175,1.98-0.229
		c1.135-5.88-1.828-11.41-1.379-17.26c0.312-5.248-0.663-10.626,0.884-15.745c0.914-2.955,0.762-6.063,0.495-9.095
		c-0.663,0.023-1.31,0.076-1.942,0.145c-0.053-22.394-0.03-44.781-0.015-67.167c4.167,1.272,8.379,2.575,12.766,2.818
		c6.551,0.548,13.018-0.96,19.34-2.521c0.091,22.379,0.091,44.773-0.008,67.159c-1.356-0.152-2.689-0.236-4.037-0.328
		c-0.152,3.092-0.137,6.193,0.038,9.3c1.318,0.328,2.635,0.655,3.984,0.944c0.13,7.411,0.107,14.838,0.015,22.257
		c-1.356-0.091-2.696-0.114-4.037-0.137c-0.175,3.207-0.16,6.421,0.046,9.636c1.325,0.145,2.651,0.289,3.991,0.472
		c0.183,20.97-0.061,41.932,0.114,62.901c0.023,7.221,3.976,13.886,9.628,18.197c8.508,6.566,19.104,9.59,29.463,11.791
		c16.811,3.321,34.01,4.151,51.11,4.014c8.676,0.061,17.39-0.183,25.989-1.394c7.381-1.082,14.861-3.192,20.871-7.792
		c8.082-6.2,11.791-16.293,13.665-25.967c3.641-20.528,6.711-41.155,9.567-61.805c0.868-0.221,1.737-0.434,2.62-0.632
		c0.663-3.085,1.089-6.216,1.211-9.354c-0.625,0.015-1.866,0.038-2.491,0.053c0.937-7.358,1.554-14.754,2.879-22.044
		c0.983-0.48,1.988-0.937,2.91-1.531c1.356-2.894,1.31-6.193,1.767-9.293c-1.234,0.015-2.46,0.03-3.664,0.122
		c3.603-33.705,6.429-67.495,8.242-101.337c-18.928-1.676-37.415-10.131-50.151-24.39c-10.534-11.578-16.811-27.033-16.834-42.732
		c0-18.037-0.023-36.074,0.015-54.112c0.145-19.477,10.138-38.207,25.372-50.135c11.707-9.407,26.286-14.869,41.178-16.323
		c-0.343-6.459-0.83-12.903-1.417-19.332c2.247-0.663,4.41-1.622,6.429-2.833c5.461,65.948,5.72,132.247,2.651,198.325
		c-3.428,69.018-10.321,137.899-21.617,206.094c-1.95,12.035-3.649,24.763-10.991,34.917c-6.231,9.087-16.765,14.084-27.345,16.026
		c-13.68,2.514-27.665,2.087-41.505,2.034c-14.038-0.236-28.099-1.325-41.886-4.03c-8.866-1.851-17.733-4.304-25.708-8.691
		c-7.343-3.969-14.038-9.963-16.857-18.014c-2.171-5.545-1.554-11.578-1.622-17.39c0-52.108,0-104.216,0-156.332
		c-6.353,1.089-12.88,1.242-19.233,0.076c0.008,54.888-0.015,109.777,0.008,164.673c-0.046,6.924-2.902,13.741-7.64,18.776
		c-3.93,4.22-8.859,7.388-14.046,9.849c-11.791,5.416-24.694,7.853-37.499,9.392c-17.458,1.996-35.069,2.003-52.611,1.508
		c-6.414-0.289-12.835-0.944-19.088-2.445c-9.255-2.087-18.037-7.13-23.491-15.028c-7.747-10.801-9.681-24.237-12.423-36.905
		c-12.035-57.242-21.023-115.208-24.832-173.608C784.731,1422.92,788.913,1344.068,797.459,1265.925 M800.697,1301.07
		c-5.202,58.049-7.838,116.426-5.317,174.682c14.381-0.404,28.671-5.073,40.279-13.612c10.961-7.99,19.446-19.568,23.042-32.715
		c1.562-5.461,2.095-11.159,2.102-16.818c-0.008-14.724-0.015-29.455,0-44.179c0.046-6.36,0.008-12.789-1.485-19.005
		c-2.575-11.235-8.676-21.549-16.978-29.501C831.15,1309.114,816.144,1302.525,800.697,1301.07 M1134.719,1324.752
		c-8.653,10.207-13.863,23.438-13.817,36.867c0.023,15.234,0,30.468,0.008,45.702c0.031,5.332-0.267,10.702,0.663,15.988
		c2.118,13.673,9.536,26.279,19.949,35.305c11.09,9.696,25.403,15.516,40.058,16.742c1.196-21.381,1.752-42.8,2.133-64.212
		c0.221-36.722,0.053-73.497-2.628-110.135C1163.397,1302.776,1146.198,1311.033,1134.719,1324.752z"/>
	<path fill="#D7D7D7" stroke="#D7D7D7" stroke-width="0.5" d="M627.904,1290.269c1.295,0.343,2.613,0.67,3.885,1.127
		c2.879,1.394,5.72,2.872,8.676,4.121c12.865,5.858,25.395,12.439,37.712,19.378c10.481,5.781,20.368,12.545,30.59,18.761
		c0.381,0.693,0.762,1.401,1.15,2.125c-1.249,2.666-2.75,5.21-4.448,7.625c-0.663-0.366-1.31-0.724-1.95-1.074
		c-25.014-16.796-51.537-31.397-79.309-43.097c-1.135-0.564-2.255-1.142-3.367-1.721
		C623.014,1294.923,625.391,1292.524,627.904,1290.269z"/>
	<path fill="#D7D7D7" stroke="#D7D7D7" stroke-width="0.5" d="M1344.591,1291.557c1.158-0.465,2.338-0.876,3.527-1.287
		c2.445,2.217,4.768,4.578,6.916,7.099c-0.876,0.685-1.737,1.386-2.59,2.087c-4.974,1.173-9.445,3.732-14.099,5.743
		c-22.539,10.55-44.438,22.607-64.912,36.775c-0.929,0.411-1.851,0.815-2.765,1.219c-1.645-2.392-3.572-4.692-4.395-7.51
		c0.35-1.013,1.066-1.821,1.752-2.605c3.748-1.965,7.244-4.365,10.801-6.657C1299.811,1313.151,1321.778,1301.383,1344.591,1291.557
		z"/>
	<path fill="#FFFFFF" stroke="#FFFFFF" stroke-width="0.5" d="M624.21,1299.234c27.772,11.7,54.294,26.302,79.309,43.097
		c-3.709,6.398-7.32,12.858-10.649,19.462c-26.401-17.877-54.881-32.563-84.252-44.902
		C613.736,1310.927,619.007,1305.107,624.21,1299.234z"/>
	<path fill="#FFFFFF" stroke="#FFFFFF" stroke-width="0.5" d="M1338.345,1305.199c4.654-2.011,9.125-4.57,14.099-5.743
		c4.951,5.911,10.367,11.418,15.303,17.352c-25.525,10.58-50.196,23.202-73.642,37.842c-3.496,2.018-6.551,4.905-10.512,6.002
		c-2.689-6.573-6.581-12.568-10.161-18.677C1293.908,1327.806,1315.807,1315.748,1338.345,1305.199z"/>
	<path fill="#FFFFFF" stroke="#FFFFFF" stroke-width="0.5" d="M800.697,1301.07c15.447,1.455,30.453,8.044,41.642,18.852
		c8.303,7.952,14.404,18.266,16.978,29.501c1.493,6.216,1.531,12.644,1.485,19.005c-0.015,14.724-0.008,29.455,0,44.179
		c-0.008,5.659-0.541,11.357-2.102,16.818c-3.595,13.147-12.081,24.725-23.042,32.715c-11.608,8.539-25.898,13.208-40.279,13.612
		C792.859,1417.497,795.494,1359.12,800.697,1301.07z"/>
	<path fill="#FFFFFF" stroke="#FFFFFF" stroke-width="0.5" d="M1134.719,1324.752c11.479-13.718,28.678-21.975,46.365-23.742
		c2.681,36.638,2.849,73.413,2.628,110.135c-0.381,21.411-0.937,42.831-2.133,64.212c-14.655-1.226-28.968-7.046-40.058-16.742
		c-10.413-9.026-17.832-21.632-19.949-35.305c-0.929-5.286-0.632-10.656-0.663-15.988c-0.008-15.234,0.015-30.468-0.008-45.702
		C1120.856,1348.189,1126.066,1334.958,1134.719,1324.752z"/>
	<path fill="#D7D7D7" stroke="#D7D7D7" stroke-width="0.5" d="M598.601,1322.954c2.019-2.407,3.748-5.157,6.315-7.038
		c1.272,0.122,2.498,0.533,3.702,0.975c29.371,12.34,57.851,27.025,84.252,44.902c0.556,0.472,1.112,0.967,1.668,1.485
		c-1.127,2.704-2.407,5.347-3.854,7.899c-0.807-0.03-1.6-0.03-2.392-0.046c-3.839-3.717-8.691-6.086-13.094-9.034
		c-23.354-14.297-47.721-27.025-73.093-37.354C600.917,1324.18,599.759,1323.563,598.601,1322.954z"/>
	<path fill="#D7D7D7" stroke="#D7D7D7" stroke-width="0.5" d="M1367.747,1316.807c1.485-0.366,3.458-1.386,4.677,0.084
		c1.881,1.79,3.321,3.976,4.89,6.04c-0.944,0.571-1.874,1.15-2.818,1.699c-24.611,9.773-48.14,22.158-70.831,35.77
		c-5.081,3.009-9.94,6.368-14.914,9.536c-0.937,0.495-1.881,0.975-2.811,1.47c-1.295-2.316-2.803-4.54-3.572-7.084
		c-0.457-1.363,0.701-2.521,1.226-3.671c3.961-1.097,7.015-3.984,10.512-6.002
		C1317.551,1340.009,1342.223,1327.387,1367.747,1316.807z"/>
	<path fill="#FFFFFF" stroke="#FFFFFF" stroke-width="0.5" d="M602.105,1324.744c25.372,10.329,49.739,23.057,73.093,37.354
		c4.403,2.948,9.255,5.317,13.094,9.034c-4.151,7.571-7.503,15.554-10.9,23.483c-12.103-7.678-25.151-13.711-38.352-19.225
		c-19.408-7.967-39.327-14.868-59.817-19.461C586.277,1345.127,594.1,1334.852,602.105,1324.744z"/>
	<path fill="#FFFFFF" stroke="#FFFFFF" stroke-width="0.5" d="M1303.665,1360.399c22.691-13.612,46.22-25.997,70.831-35.77
		c7.975,10.184,16.087,20.299,23.141,31.161c-15.615,3.382-30.857,8.303-45.839,13.825c-17.854,6.749-35.564,14.221-51.849,24.253
		c-3.451-8.104-7.213-16.08-11.197-23.933C1293.725,1366.767,1298.584,1363.408,1303.665,1360.399z"/>
	<path fill="#E44044" stroke="#E44044" stroke-width="0.5" d="M553.646,1355.243c5.85-2.613,12.416-1.729,18.517-0.678
		c2.361,0.404,4.715,0.861,7.061,1.364c20.49,4.593,40.408,11.494,59.817,19.461c13.2,5.515,26.248,11.547,38.352,19.225
		c1.897,1.234,3.763,2.521,5.576,3.885c5.393,3.786,9.658,9.636,10.207,16.354c0.564,5.042-1.303,10.527-5.538,13.536
		c-4.715,3.626-11.121,4.25-16.742,2.704c-2.171-0.746-4.266-1.706-6.155-3.009c-9.514-7.602-20.65-12.751-31.695-17.687
		c-15.341-6.665-31.085-12.401-47.142-17.1c-8.371-2.354-16.826-4.601-25.502-5.492c-2.209-0.335-4.372-0.914-6.421-1.79
		c-6.132-2.933-10.953-9.064-11.022-16.034C542.7,1363.332,547.735,1357.619,553.646,1355.243z"/>
	<path fill="#E44044" stroke="#E44044" stroke-width="0.5" d="M1404.827,1354.428c6.878-1.318,14.564-1.668,20.657,2.361
		c5.187,3.115,8.744,9.323,7.51,15.447c-0.868,5.713-4.898,10.496-9.833,13.284c-2.11,1.028-4.365,1.76-6.673,2.156
		c-13.063,1.478-25.708,5.294-38.169,9.331c-14.884,4.905-29.531,10.557-43.707,17.26c-7.594,3.694-15.211,7.541-21.861,12.804
		c-1.821,1.364-3.77,2.567-5.857,3.481c-6.528,2.437-14.526,1.653-19.698-3.283c-4.791-4.403-5.248-11.852-2.994-17.633
		c1.836-5.073,5.819-8.973,10.146-12.005c1.821-1.318,3.694-2.559,5.599-3.763c16.285-10.032,33.995-17.504,51.849-24.253
		c14.983-5.522,30.224-10.443,45.839-13.825C1400.021,1355.288,1402.42,1354.824,1404.827,1354.428z"/>
	<path fill="#D0D2D3" stroke="#D0D2D3" stroke-width="0.5" d="M553.981,1386.016c2.049,0.876,4.212,1.455,6.421,1.79
		c-5.53,11.654-10.771,23.483-14.564,35.838c-4.151,12.827-6.421,26.545-4.327,39.989c1.79,12.248,7.312,24.039,16.064,32.868
		c11.235,11.479,27.482,17.938,43.531,17.276c12.941-0.495,25.327-6.558,34.315-15.767c5.72-5.553,10.009-12.34,13.528-19.439
		c3.298,2.003,6.711,4.448,10.763,4.334c5.164,0.015,9.674-3.534,12.05-7.929c4.22-7.83,3.245-18.06-2.041-25.151
		c-2.308-3.237-5.819-5.24-9.308-6.954c1.333-4.966,2.986-9.833,4.326-14.785c1.889,1.302,3.984,2.262,6.155,3.009
		c-0.876,2.795-1.744,5.591-2.59,8.409c12.408,8.021,16.278,26.05,9.217,38.809c-2.788,5.248-7.762,9.43-13.619,10.74
		c-4.09,1.044-8.379,0.335-12.271-1.135c-3.435,5.461-7.221,10.74-11.875,15.242c-9.156,9.102-21.236,15.455-34.14,16.91
		c-17.969,2.034-36.615-4.144-50.044-16.209c-9.773-8.744-16.582-20.635-19.515-33.393c-3.222-14.008-2.186-28.77,1.584-42.564
		C541.641,1413.429,547.346,1399.475,553.981,1386.016z"/>
	<path fill="#D0D2D3" stroke="#D0D2D3" stroke-width="0.5" d="M1416.489,1387.676c2.308-0.396,4.563-1.127,6.673-2.156
		c7.145,13.794,13.116,28.221,17.466,43.151c3.839,13.292,5.324,27.452,2.818,41.14c-2.377,13.124-8.722,25.57-18.266,34.939
		c-16.826,16.453-43.371,23.285-65.583,14.602c-13.787-5.355-24.938-16.118-32.349-28.762c-3.489,1.234-7.244,2.118-10.938,1.417
		c-6.848-0.975-12.659-5.918-15.592-12.05c-6.261-12.728-2.27-29.92,9.765-37.803c-1.135-3.892-2.392-7.739-3.588-11.601
		c2.087-0.914,4.037-2.118,5.857-3.481c1.92,6.155,3.991,12.271,5.606,18.517c-4.205,1.95-8.257,4.654-10.534,8.82
		c-4.296,7.229-4.684,16.918-0.259,24.184c2.445,4.06,6.924,7.13,11.783,6.985c3.976,0.061,7.305-2.392,10.534-4.387
		c5.339,11.395,13.566,21.686,24.474,28.16c10.565,6.497,23.605,8.706,35.754,6.238c13.794-2.575,26.736-10.047,35.343-21.198
		c8.683-11.007,12.812-25.197,12.591-39.121c0.046-14.335-4.464-28.145-9.43-41.422
		C1425.02,1404.936,1421.493,1395.902,1416.489,1387.676z"/>
	<path fill="#FFFFFF" stroke="#FFFFFF" stroke-width="0.5" d="M560.402,1387.806c8.676,0.891,17.131,3.138,25.502,5.492
		c16.057,4.7,31.801,10.435,47.142,17.1c11.045,4.936,22.181,10.085,31.695,17.687c-1.341,4.951-2.994,9.818-4.326,14.785
		c3.489,1.714,7,3.717,9.308,6.954c5.286,7.092,6.261,17.321,2.041,25.151c-2.376,4.395-6.886,7.945-12.05,7.929
		c-4.052,0.114-7.465-2.331-10.763-4.334c-3.519,7.099-7.807,13.886-13.528,19.439c-8.988,9.209-21.373,15.272-34.315,15.767
		c-16.049,0.663-32.296-5.797-43.531-17.276c-8.752-8.828-14.274-20.619-16.064-32.868c-2.095-13.444,0.175-27.162,4.327-39.989
		C549.631,1411.289,554.872,1399.459,560.402,1387.806z"/>
	<path fill="#FFFFFF" stroke="#FFFFFF" stroke-width="0.5" d="M1378.32,1397.007c12.461-4.037,25.106-7.853,38.169-9.331
		c5.004,8.226,8.531,17.26,12.126,26.172c4.966,13.276,9.476,27.086,9.43,41.422c0.221,13.924-3.908,28.115-12.591,39.121
		c-8.607,11.151-21.549,18.624-35.343,21.198c-12.149,2.468-25.19,0.259-35.754-6.238c-10.908-6.474-19.134-16.765-24.474-28.16
		c-3.23,1.996-6.558,4.448-10.534,4.387c-4.86,0.145-9.339-2.925-11.783-6.985c-4.426-7.267-4.037-16.956,0.259-24.184
		c2.277-4.167,6.33-6.87,10.534-8.82c-1.615-6.246-3.687-12.362-5.606-18.517c6.65-5.263,14.267-9.11,21.861-12.804
		C1348.788,1407.564,1363.436,1401.912,1378.32,1397.007z"/>
	<path fill="#D7D7D7" stroke="#D7D7D7" stroke-width="0.5" d="M803.553,1584.142c0.411-0.289,1.242-0.861,1.653-1.143
		c21.945,3.283,44.118,4.875,66.283,5.614c34.642,1.005,69.406-0.358,103.782-4.913c0.632-0.068,1.28-0.122,1.942-0.145
		c0.267,3.032,0.419,6.139-0.495,9.095c-1.546,5.119-0.571,10.496-0.884,15.745c-0.449,5.85,2.514,11.38,1.379,17.26
		c-0.495,0.053-1.485,0.175-1.98,0.229c-54.012,6.672-108.84,6.68-162.89,0.358c0.099,0.716,0.312,2.133,0.411,2.841
		c-1.424-2.498-3.435-4.776-3.915-7.693c-0.785-2.689-0.114-5.454,1.203-7.83c0.16,0.8,0.328,1.615,0.51,2.445
		c34.048,4.464,68.477,5.797,102.792,4.799c20.657-0.647,41.3-2.14,61.789-4.875c0.053-7.411,0.061-14.815-0.008-22.219
		c-37.384,4.517-75.127,6.033-112.747,4.38c-18.631-0.686-37.179-2.613-55.688-4.715
		C803.187,1591.836,804.223,1587.204,803.553,1584.142z"/>
	<path fill="#D7D7D7" stroke="#D7D7D7" stroke-width="0.5" d="M1003.318,1583.662c1.348,0.091,2.681,0.175,4.037,0.328
		c17.831,2.323,35.777,3.725,53.746,4.41c37.346,1.478,74.837-0.084,111.894-4.997c1.203-0.091,2.43-0.107,3.664-0.122
		c-0.457,3.1-0.411,6.398-1.767,9.293c-0.922,0.594-1.927,1.051-2.91,1.531c-4.403-0.655-8.76,0.526-13.117,0.884
		c-50.333,5.378-101.276,4.951-151.526-1.082c-1.348-0.289-2.666-0.617-3.984-0.944
		C1003.18,1589.855,1003.165,1586.755,1003.318,1583.662z"/>
	<path fill="#FFFFFF" stroke="#FFFFFF" stroke-width="0.5" d="M806.691,1593.374c18.509,2.102,37.057,4.029,55.688,4.715
		c37.62,1.653,75.363,0.137,112.747-4.38c0.069,7.404,0.061,14.807,0.008,22.219c-20.49,2.734-41.132,4.227-61.789,4.875
		c-34.315,0.998-68.744-0.335-102.792-4.799c-0.183-0.83-0.35-1.645-0.51-2.445C808.824,1606.841,808.009,1600.062,806.691,1593.374
		z"/>
	<path fill="#FFFFFF" stroke="#FFFFFF" stroke-width="0.5" d="M1007.339,1593.907c50.25,6.033,101.192,6.459,151.526,1.082
		c4.357-0.358,8.714-1.539,13.117-0.884c-1.325,7.29-1.942,14.686-2.879,22.044c-35.777,4.448-71.928,5.88-107.956,4.441
		c-17.984-0.686-35.945-2.079-53.792-4.426C1007.446,1608.745,1007.469,1601.319,1007.339,1593.907z"/>
	<path fill="#D7D7D7" stroke="#D7D7D7" stroke-width="0.5" d="M1003.318,1616.027c1.341,0.023,2.681,0.046,4.037,0.137
		c17.847,2.346,35.808,3.74,53.792,4.426c36.029,1.44,72.179,0.008,107.956-4.441c0.625-0.015,1.866-0.038,2.491-0.053
		c-0.122,3.138-0.548,6.269-1.211,9.354c-0.884,0.198-1.752,0.411-2.62,0.632c-36.326,4.738-73.108,5.599-109.693,4.22
		c-16.956-0.701-33.873-2.118-50.714-4.167c-1.341-0.183-2.666-0.328-3.991-0.472
		C1003.158,1622.448,1003.142,1619.234,1003.318,1616.027z"/>
	<path fill="#FFFFFF" stroke="#FFFFFF" stroke-width="0.5" d="M812.343,1626.242c54.051,6.322,108.878,6.314,162.89-0.358
		c-0.023,21.076,0.069,42.153-0.038,63.229c0.008,7.556-4.403,14.404-10.397,18.73c-8.683,6.307-19.271,9.247-29.653,11.38
		c-20.2,3.908-40.873,4.06-61.371,3.74c-7.419-0.289-14.907-0.693-22.112-2.613c-6.543-1.691-12.789-5.027-17.176-10.26
		c-6.794-7.906-9.331-18.342-11.357-28.313c-3.732-17.511-7.274-35.061-10.374-52.695
		C812.655,1628.374,812.442,1626.958,812.343,1626.242z"/>
	<path fill="#FFFFFF" stroke="#FFFFFF" stroke-width="0.5" d="M1007.355,1626.135c16.841,2.049,33.759,3.466,50.714,4.167
		c36.585,1.379,73.367,0.518,109.693-4.22c-2.856,20.65-5.926,41.277-9.567,61.805c-1.874,9.674-5.583,19.766-13.665,25.967
		c-6.01,4.601-13.49,6.711-20.871,7.792c-8.6,1.211-17.313,1.455-25.989,1.394c-17.1,0.137-34.3-0.693-51.11-4.014
		c-10.359-2.201-20.955-5.225-29.463-11.791c-5.652-4.311-9.605-10.976-9.628-18.197
		C1007.294,1668.067,1007.537,1647.105,1007.355,1626.135z"/>
	<path fill="#BBBDBF" stroke="#BBBDBF" stroke-width="0.5" d="M1019.428,1716.885c7.975,4.387,16.841,6.84,25.708,8.691
		c13.787,2.704,27.848,3.793,41.886,4.03c13.84,0.053,27.825,0.48,41.505-2.034c-0.061,0.487-0.183,1.463-0.251,1.95
		c-5.888,0.906-11.867,1.432-17.58,3.214c-17.649,4.898-33.043,15.866-45.428,29.128c-5.591,6.452-12.233,12.721-14.236,21.358
		c4.464-0.488,7.564-3.892,10.207-7.175c8.98-11.273,19.347-21.716,31.832-29.097c10.443-6.421,22.409-9.971,34.536-11.395
		c8.592-0.876,17.344,0.213,25.609,2.643c21.259,6.33,38.953,23.476,45.816,44.582c3.809,11.289,4.136,23.598,1.356,35.168
		c-5.355,2.689-10.527,5.774-16.163,7.876c-23.026,9.057-48.566,9.742-72.773,5.888c-27.109-4.403-53.045-14.419-77.145-27.414
		c-4.829-2.559-9.46-5.477-14.305-7.99C1019.641,1769.838,1019.664,1743.361,1019.428,1716.885z"/>
	<path fill="#BBBDBF" stroke="#BBBDBF" stroke-width="0.5" d="M922.539,1727.914c12.804-1.539,25.708-3.976,37.499-9.392
		c-0.305,4.928-0.221,9.856-0.221,14.8c0.053,20.977-0.259,41.947-0.381,62.932c-9.491,5.279-18.86,10.824-28.754,15.348
		c-24.245,11.426-50.257,19.667-77.069,21.846c-18.966,1.409-38.42-0.168-56.351-6.817c-6.398-2.239-12.309-5.568-18.258-8.744
		c-2.902-12.066-2.384-24.953,1.881-36.63c4.974-14.031,14.708-26.233,27.079-34.459c12.781-8.562,28.533-12.659,43.867-11.258
		c14.785,1.645,29.166,6.977,41.17,15.821c10.047,7.099,18.509,16.156,26.05,25.814c2.316,3.085,5.53,5.591,9.491,5.964
		c-1.462-4.951-4.128-9.438-7.465-13.345c-9.773-11.845-21.221-22.592-34.833-29.882c-10.77-5.941-22.851-9.384-35.107-10.176
		c-0.107-0.937-0.206-1.859-0.297-2.757c6.254,1.501,12.675,2.156,19.088,2.445C887.47,1729.917,905.081,1729.91,922.539,1727.914z"
		/>
	<path fill="#A6A8AB" stroke="#A6A8AB" stroke-width="0.5" d="M851.137,1729.734c12.256,0.792,24.336,4.235,35.107,10.176
		c13.612,7.29,25.06,18.037,34.833,29.882c3.336,3.907,6.002,8.394,7.465,13.345c-3.961-0.373-7.175-2.879-9.491-5.964
		c-7.541-9.658-16.003-18.715-26.05-25.814c-12.004-8.843-26.385-14.175-41.17-15.821
		C851.586,1733.589,851.35,1731.661,851.137,1729.734z"/>
	<path fill="#A6A8AB" stroke="#A6A8AB" stroke-width="0.5" d="M1110.695,1732.735c5.713-1.782,11.692-2.308,17.58-3.214
		c-0.236,2.003-0.457,4.007-0.67,6.033c-12.126,1.424-24.093,4.974-34.536,11.395c-12.484,7.381-22.851,17.824-31.832,29.097
		c-2.643,3.283-5.743,6.688-10.207,7.175c2.003-8.638,8.645-14.907,14.236-21.358
		C1077.652,1748.602,1093.046,1737.633,1110.695,1732.735z"/>
	<path fill="#929497" stroke="#929497" stroke-width="0.5" d="M930.681,1811.602c9.895-4.525,19.263-10.07,28.754-15.348
		c-0.289,5.385,0.945,10.923-0.487,16.224c-1.485,4.776-8.112,5.964-11.608,2.628c-0.03,2.087-0.206,4.418-1.859,5.949
		c-2.719,2.971-7.724,2.833-10.42-0.107c-0.03,2.118-0.289,4.486-2.019,5.972c-2.795,2.948-7.83,2.582-10.435-0.434
		c-0.053,2.948-1.348,6.094-4.304,7.198c-2.925,1.417-6.193,0.091-8.363-2.026c-0.343,2.91-1.76,6.01-4.799,6.901
		c-2.887,1.188-5.888-0.206-8.074-2.095c-0.792,2.887-2.689,5.835-5.911,6.238c-2.91,0.754-5.507-0.967-7.427-2.948
		c-0.8,2.681-2.498,5.431-5.492,5.926c-3.199,0.922-6.276-0.983-7.998-3.572c-0.731,2.59-2.3,5.263-5.18,5.797
		c-3.473,1.097-6.947-1.066-8.432-4.174c-0.579,4.128-5.012,6.985-8.981,5.599c-2.361-0.495-3.717-2.582-4.616-4.624
		c-0.785,4.227-5.659,6.734-9.559,5.004c-2.262-0.777-3.443-2.971-4.151-5.088c-0.876,3.222-4.06,5.522-7.419,5.004
		c-3.359-0.213-5.766-3.123-6.322-6.276c-0.815,1.851-2.217,3.565-4.304,3.984c-4.418,1.302-9.43-2.338-8.95-7.084
		c-2.437,3.725-8.143,3.877-11.022,0.625c-1.813-1.661-1.798-4.228-1.683-6.474c-3.253,2.255-8.165,1.15-9.956-2.415
		c-2.163-4.387-1.302-9.46-0.663-14.099c5.949,3.176,11.86,6.505,18.258,8.744c17.931,6.65,37.384,8.226,56.351,6.817
		C880.424,1831.27,906.436,1823.028,930.681,1811.602z"/>
	<path fill="#929497" stroke="#929497" stroke-width="0.5" d="M1019.999,1796.307c4.844,2.514,9.476,5.431,14.305,7.99
		c24.1,12.995,50.036,23.011,77.145,27.414c24.207,3.854,49.747,3.169,72.773-5.888c5.637-2.102,10.809-5.187,16.163-7.876
		c0.739,4.677,1.47,9.811-0.739,14.221c-1.881,3.481-6.756,4.426-9.955,2.217c0.267,2.163,0.274,4.646-1.424,6.299
		c-2.796,3.352-8.775,3.481-11.083-0.487c-0.266,2.133-0.716,4.494-2.635,5.797c-3.405,2.872-9.24,1.683-10.824-2.628
		c-0.396,3.969-4.281,7.046-8.242,6.208c-2.742-0.312-4.639-2.552-5.477-5.02c-0.609,2.872-2.826,5.4-5.88,5.636
		c-3.633,0.602-6.97-2.011-7.8-5.484c-1.104,3.778-5.423,5.964-9.11,4.517c-2.521-0.686-3.748-3.146-4.525-5.408
		c-1.47,3.245-5.218,5.24-8.691,4.022c-2.735-0.647-4.106-3.26-4.86-5.713c-1.463,1.95-3.443,3.854-6.078,3.755
		c-3.702,0.282-6.604-2.757-7.411-6.155c-1.851,1.889-4.258,3.679-7.091,3.031c-3.352-0.274-5.446-3.268-6.177-6.284
		c-2.148,1.706-4.928,3.214-7.724,2.201c-3.192-0.785-5.005-3.915-5.18-7.015c-2.156,2.049-5.347,3.458-8.242,2.064
		c-3.123-1.067-4.616-4.448-4.296-7.564c-2.376,3.298-7.495,3.732-10.435,0.952c-1.798-1.485-2.118-3.9-2.209-6.063
		c-2.019,1.828-4.822,2.803-7.488,1.836c-3.39-0.998-5.164-4.601-4.776-7.96c-3.336,3.771-10.359,2.224-11.662-2.651
		C1019.138,1807.025,1020.182,1801.616,1019.999,1796.307z"/>
</g>
</svg>
