<?xml version="1.0" encoding="UTF-8" standalone="no"?>
<!-- Created with Inkscape (http://www.inkscape.org/) -->

<svg
   id="svg2"
   sodipodi:docname="space.svg"
   viewBox="0 0 559.92179 395.90179"
   version="1.1"
   inkscape:version="1.2 (dc2aedaf03, 2022-05-15)"
   width="559.92181"
   height="395.90179"
   xmlns:inkscape="http://www.inkscape.org/namespaces/inkscape"
   xmlns:sodipodi="http://sodipodi.sourceforge.net/DTD/sodipodi-0.dtd"
   xmlns="http://www.w3.org/2000/svg"
   xmlns:svg="http://www.w3.org/2000/svg"
   xmlns:rdf="http://www.w3.org/1999/02/22-rdf-syntax-ns#"
   xmlns:cc="http://creativecommons.org/ns#"
   xmlns:dc="http://purl.org/dc/elements/1.1/">
  <defs
     id="defs160" />
  <sodipodi:namedview
     id="base"
     bordercolor="#666666"
     inkscape:pageshadow="2"
     inkscape:window-y="-9"
     fit-margin-left="0"
     pagecolor="#ffffff"
     inkscape:window-height="1001"
     inkscape:window-maximized="1"
     inkscape:zoom="1.2693986"
     inkscape:window-x="-9"
     showgrid="false"
     borderopacity="1.0"
     inkscape:current-layer="layer1"
     inkscape:cx="303.29323"
     inkscape:cy="165.82656"
     fit-margin-top="0"
     fit-margin-right="0"
     fit-margin-bottom="0"
     inkscape:window-width="1920"
     inkscape:pageopacity="0.0"
     inkscape:document-units="px"
     inkscape:showpageshadow="2"
     inkscape:pagecheckerboard="0"
     inkscape:deskcolor="#d1d1d1" />
  <g
     id="layer1"
     inkscape:label="Livello 1"
     inkscape:groupmode="layer"
     transform="translate(-104.6925,-326.65353)">
    <rect
       id="rect2989"
       style="fill:#000820;stroke:#000820;stroke-width:2.5218"
       height="393.38"
       width="557.40002"
       y="327.91443"
       x="105.9534" />
    <path
       id="path3002"
       style="fill:#ffff00;stroke:#000820;stroke-width:4"
       sodipodi:type="star"
       d="m 370.13482,222.79904 -30.73355,100.02071 -65.21192,-81.8297 -104.62255,1.67877 57.67308,-87.307 -33.92674,-98.983183 100.85585,27.871008 83.65466,-62.853736 4.65926,104.532231 85.62817,60.13743 z"
       sodipodi:r1="83.070076"
       inkscape:flatsided="false"
       transform="matrix(0.074763,0,0,0.074763,129.4344,657.48445)"
       sodipodi:arg2="1.3834229"
       sodipodi:arg1="0.7551044"
       inkscape:randomized="0"
       sodipodi:cy="165.86574"
       sodipodi:cx="309.64319"
       inkscape:rounded="0"
       sodipodi:r2="159.75014"
       sodipodi:sides="5" />
    <path
       id="path3004"
       style="fill:#ffff00;stroke:#000820;stroke-width:4"
       sodipodi:type="star"
       sodipodi:sides="5"
       sodipodi:r1="83.070076"
       sodipodi:r2="159.75014"
       sodipodi:arg1="0.7551044"
       sodipodi:arg2="1.3834229"
       transform="matrix(0.08078,0,0,0.08078,543.1044,363.36445)"
       inkscape:randomized="0"
       sodipodi:cy="165.86574"
       sodipodi:cx="309.64319"
       inkscape:rounded="0"
       inkscape:flatsided="false"
       d="m 370.13482,222.79904 -30.73355,100.02071 -65.21192,-81.8297 -104.62255,1.67877 57.67308,-87.307 -33.92674,-98.983183 100.85585,27.871008 83.65466,-62.853736 4.65926,104.532231 85.62817,60.13743 z" />
    <path
       id="path3006"
       style="fill:#ffff00;stroke:#000820;stroke-width:4"
       sodipodi:type="star"
       d="m 370.13482,222.79904 -30.73355,100.02071 -65.21192,-81.8297 -104.62255,1.67877 57.67308,-87.307 -33.92674,-98.983183 100.85585,27.871008 83.65466,-62.853736 4.65926,104.532231 85.62817,60.13743 z"
       sodipodi:r1="83.070076"
       inkscape:flatsided="false"
       transform="matrix(0.074763,0,0,0.074763,206.4244,427.20445)"
       sodipodi:arg2="1.3834229"
       sodipodi:arg1="0.7551044"
       inkscape:randomized="0"
       sodipodi:cy="165.86574"
       sodipodi:cx="309.64319"
       inkscape:rounded="0"
       sodipodi:r2="159.75014"
       sodipodi:sides="5" />
    <path
       id="path3009"
       style="fill:#ffff00;stroke:#000820;stroke-width:4"
       sodipodi:type="star"
       sodipodi:sides="5"
       sodipodi:r1="83.070076"
       sodipodi:r2="159.75014"
       sodipodi:arg1="0.7551044"
       sodipodi:arg2="1.3834229"
       transform="matrix(0.074763,0,0,0.074763,477.6444,471.16445)"
       inkscape:randomized="0"
       sodipodi:cy="165.86574"
       sodipodi:cx="309.64319"
       inkscape:rounded="0"
       inkscape:flatsided="false"
       d="m 370.13482,222.79904 -30.73355,100.02071 -65.21192,-81.8297 -104.62255,1.67877 57.67308,-87.307 -33.92674,-98.983183 100.85585,27.871008 83.65466,-62.853736 4.65926,104.532231 85.62817,60.13743 z" />
    <path
       id="path3011"
       style="fill:#ffff00;stroke:#000820;stroke-width:4"
       sodipodi:type="star"
       d="m 370.13482,222.79904 -30.73355,100.02071 -65.21192,-81.8297 -104.62255,1.67877 57.67308,-87.307 -33.92674,-98.983183 100.85585,27.871008 83.65466,-62.853736 4.65926,104.532231 85.62817,60.13743 z"
       sodipodi:r1="83.070076"
       inkscape:flatsided="false"
       transform="matrix(0.050695,0,0,0.050695,405.4444,406.84445)"
       sodipodi:arg2="1.3834229"
       sodipodi:arg1="0.7551044"
       inkscape:randomized="0"
       sodipodi:cy="165.86574"
       sodipodi:cx="309.64319"
       inkscape:rounded="0"
       sodipodi:r2="159.75014"
       sodipodi:sides="5" />
    <path
       id="path3013-1"
       style="fill:#ffff00;stroke:#000820;stroke-width:4"
       sodipodi:type="star"
       sodipodi:sides="5"
       sodipodi:r1="83.070076"
       sodipodi:r2="159.75014"
       sodipodi:arg1="0.7551044"
       sodipodi:arg2="1.3834229"
       transform="matrix(0.074763,0,0,0.074763,361.1644,650.20445)"
       inkscape:randomized="0"
       sodipodi:cy="165.86574"
       sodipodi:cx="309.64319"
       inkscape:rounded="0"
       inkscape:flatsided="false"
       d="m 370.13482,222.79904 -30.73355,100.02071 -65.21192,-81.8297 -104.62255,1.67877 57.67308,-87.307 -33.92674,-98.983183 100.85585,27.871008 83.65466,-62.853736 4.65926,104.532231 85.62817,60.13743 z" />
    <path
       id="path3015-7"
       style="fill:#ffff00;stroke:#000820;stroke-width:4"
       sodipodi:type="star"
       sodipodi:sides="5"
       sodipodi:r1="83.070076"
       sodipodi:r2="159.75014"
       sodipodi:arg1="0.7551044"
       sodipodi:arg2="1.3834229"
       transform="matrix(0.032644,0,0,0.032644,140.6644,351.62445)"
       inkscape:randomized="0"
       sodipodi:cy="165.86574"
       sodipodi:cx="309.64319"
       inkscape:rounded="0"
       inkscape:flatsided="false"
       d="m 370.13482,222.79904 -30.73355,100.02071 -65.21192,-81.8297 -104.62255,1.67877 57.67308,-87.307 -33.92674,-98.983183 100.85585,27.871008 83.65466,-62.853736 4.65926,104.532231 85.62817,60.13743 z" />
    <path
       id="path3017-4"
       style="fill:#ffff00;stroke:#000820;stroke-width:4"
       sodipodi:type="star"
       sodipodi:sides="5"
       sodipodi:r1="83.070076"
       sodipodi:r2="159.75014"
       sodipodi:arg1="0.7551044"
       sodipodi:arg2="1.3834229"
       transform="matrix(0.074763,0,0,0.074763,139.0644,531.87445)"
       inkscape:randomized="0"
       sodipodi:cy="165.86574"
       sodipodi:cx="309.64319"
       inkscape:rounded="0"
       inkscape:flatsided="false"
       d="m 370.13482,222.79904 -30.73355,100.02071 -65.21192,-81.8297 -104.62255,1.67877 57.67308,-87.307 -33.92674,-98.983183 100.85585,27.871008 83.65466,-62.853736 4.65926,104.532231 85.62817,60.13743 z" />
    <path
       id="path3019"
       style="fill:#ffff00;stroke:#000820;stroke-width:4"
       sodipodi:type="star"
       d="m 370.13482,222.79904 -30.73355,100.02071 -65.21192,-81.8297 -104.62255,1.67877 57.67308,-87.307 -33.92674,-98.983183 100.85585,27.871008 83.65466,-62.853736 4.65926,104.532231 85.62817,60.13743 z"
       sodipodi:r1="83.070076"
       inkscape:flatsided="false"
       transform="matrix(0.032644,0,0,0.032644,493.9644,692.14445)"
       sodipodi:arg2="1.3834229"
       sodipodi:arg1="0.7551044"
       inkscape:randomized="0"
       sodipodi:cy="165.86574"
       sodipodi:cx="309.64319"
       inkscape:rounded="0"
       sodipodi:r2="159.75014"
       sodipodi:sides="5" />
    <path
       id="path3021"
       d="m 175.7144,345.68445 c -4.8519,-0.67509 -9.6237,-0.64711 -14.24,-0.004 20.256,8.9129 33.022,30.265 29.858,53.007 -3.1641,22.74 -21.27,39.748 -43.187,42.794 4.2667,1.8806 8.8463,3.2087 13.7,3.8841 27.878,3.8789 53.598,-15.268 57.427,-42.791 3.8296,-27.523 -15.68,-53.012 -43.558,-56.891 z"
       style="fill:#ffdc18;stroke:#f1dd0d;stroke-width:6.0472"
       inkscape:connector-curvature="0" />
    <path
       id="path3959"
       style="fill:#ffff00;stroke:#000820;stroke-width:4"
       sodipodi:type="star"
       sodipodi:sides="5"
       sodipodi:r1="83.070076"
       sodipodi:r2="159.75014"
       sodipodi:arg1="0.7551044"
       sodipodi:arg2="1.3834229"
       transform="matrix(0.03495,0,0,0.03495,400.5944,346.23445)"
       inkscape:randomized="0"
       sodipodi:cy="165.86574"
       sodipodi:cx="309.64319"
       inkscape:rounded="0"
       inkscape:flatsided="false"
       d="m 370.13482,222.79904 -30.73355,100.02071 -65.21192,-81.8297 -104.62255,1.67877 57.67308,-87.307 -33.92674,-98.983183 100.85585,27.871008 83.65466,-62.853736 4.65926,104.532231 85.62817,60.13743 z" />
    <path
       id="path3961"
       style="fill:#ffff00;stroke:#000820;stroke-width:4"
       sodipodi:type="star"
       d="m 370.13482,222.79904 -30.73355,100.02071 -65.21192,-81.8297 -104.62255,1.67877 57.67308,-87.307 -33.92674,-98.983183 100.85585,27.871008 83.65466,-62.853736 4.65926,104.532231 85.62817,60.13743 z"
       sodipodi:r1="83.070076"
       inkscape:flatsided="false"
       transform="matrix(0.020822,0,0,0.020822,313.7344,403.16445)"
       sodipodi:arg2="1.3834229"
       sodipodi:arg1="0.7551044"
       inkscape:randomized="0"
       sodipodi:cy="165.86574"
       sodipodi:cx="309.64319"
       inkscape:rounded="0"
       sodipodi:r2="159.75014"
       sodipodi:sides="5" />
  </g>
  <metadata
     id="metadata157">
    <rdf:RDF>
      <cc:Work>
        <dc:format>image/svg+xml</dc:format>
        <dc:type
           rdf:resource="http://purl.org/dc/dcmitype/StillImage" />
        <cc:license
           rdf:resource="http://creativecommons.org/licenses/publicdomain/" />
        <dc:publisher>
          <cc:Agent
             rdf:about="http://openclipart.org/">
            <dc:title>Openclipart</dc:title>
          </cc:Agent>
        </dc:publisher>
      </cc:Work>
      <cc:License
         rdf:about="http://creativecommons.org/licenses/publicdomain/">
        <cc:permits
           rdf:resource="http://creativecommons.org/ns#Reproduction" />
        <cc:permits
           rdf:resource="http://creativecommons.org/ns#Distribution" />
        <cc:permits
           rdf:resource="http://creativecommons.org/ns#DerivativeWorks" />
      </cc:License>
    </rdf:RDF>
  </metadata>
</svg>
